<?xml version="1.0" encoding="utf-8"?>
<!-- Generator: Adobe Illustrator 25.4.1, SVG Export Plug-In . SVG Version: 6.00 Build 0)  -->
<svg version="1.1" id="Layer_1" xmlns="http://www.w3.org/2000/svg" xmlns:xlink="http://www.w3.org/1999/xlink" x="0px" y="0px"
	 viewBox="0 0 500 244.4" style="enable-background:new 0 0 500 244.4;" xml:space="preserve">
<style type="text/css">
	.st0{fill-rule:evenodd;clip-rule:evenodd;fill:#1D1819;}
	.st1{fill:#FFFFFF;}
	.st2{fill:#010101;}
	.st3{fill:#1D1819;}
	.st4{fill-rule:evenodd;clip-rule:evenodd;fill:#F5F6F6;}
	.st5{fill-rule:evenodd;clip-rule:evenodd;fill:#FFFFFF;}
</style>
<g id="_64993962192">
	<path class="st0" d="M60.7,49.6c2-0.9,4.1-1.4,6.3-1.4h15.5c2.1,0,4.2,0.5,6,1.3c5.3-2.1,11.1-2.6,16.7-2.6
		c5.6,0,11.6,0.6,16.9,2.7c1.9-0.9,4-1.3,6.1-1.3h15.5c1,0,2,0.1,2.9,0.3c1-0.2,2-0.3,3-0.3h0.7l11.3-18.4
		c8.8-14.4,29.2-19.6,44.9-16l152.4,34.4h6.7c1.9,0,3.7,0.4,5.5,1.1c4.7-1.7,9.9-2.3,15-2.4c1.5-0.8,3-1.5,4.5-2.2l-6.3-19.3
		c-2.7-8.3,3.1-17,11.6-18.3l6.3-1c5.4-0.9,10.7,1.3,13.9,5.3c3.2-3.4,8.1-5.2,13.1-4.4l6.3,1c6.2,1,10.9,5.9,12,11.7
		c5-3.8,12.3-3.8,17.6,0.2l5.1,3.9c3.6,2.8,5.6,7,5.7,11.2c5.4-0.9,11.2,1.5,14.5,6.4l3.5,5.4c4.7,7.2,2.3,17.3-5.6,21l-15.4,7.1
		c0.8,1.7,1.6,3.5,2.2,5.3c0.8,1.2,1.6,2.4,2.4,3.7c9.4,15.7,12,35,7,52.6c-4.2,14.8-13.5,27.8-26.1,36.5l-3.1,2.2
		c-3.1,2.1-8.3,5.3-10.5,8.2c-0.8,1-1.3,2.1-1.7,3.2c-0.8,2.2-2,4.3-3.4,6.2c0,0,0,0,0,0c-0.3,1.2-0.8,2.3-1.3,3.4
		c-0.2,1.2-0.4,2.4-0.7,3.6c-0.4,1.4-0.9,2.8-1.6,4.1c-0.1,1.5-0.4,2.9-0.8,4.3c-1.7,6.1-5.8,11.1-11.2,14.2
		c-6.8,5.4-15.9,7.3-24.2,4.9l-18.7-5.3c-0.8,0.2-1.7,0.3-2.5,0.5l-0.3,0l-43.4,4.4l-4.4,4.7c-1.3,1.4-2.9,2.1-4.7,2.1l-315.2,5.1
		c-2.1,0-3.9-0.8-5.2-2.4c-1.3-1.6-1.8-3.6-1.3-5.6l9.9-42.9c0.7-3.1,3.4-5.1,6.5-5.1l65.3,0.9c0.3-0.6,0.7-1.2,1.2-1.8l5.9-33.9
		c-1.4-0.3-2.8-0.8-4.2-1.3c-1.9,0.9-3.9,1.3-6,1.3H67c-2.2,0-4.4-0.5-6.3-1.4c-3.1,1-6.5,1.4-9.8,1.4H25.9
		c-8.1,0-14.6-6.6-14.6-14.6V62.7c0-8.1,6.6-14.6,14.6-14.6h25.1C54.2,48.1,57.5,48.5,60.7,49.6L60.7,49.6z"/>
	<path class="st1" d="M466.3,90.4c-7-11.6-18.1-20.1-31.2-23.8c-1.2-0.3-2.5-0.7-3.7-0.9c-11.5-2.4-23-0.9-33.1,3.7
		c-2.3-1.5-5-2.3-7.9-2.3h-6.1L203.7,26.4c-12-2.7-25.9,1.8-31,10.2l-57.2,93.1c-3.6,5.9-2,12.4,4.3,16.6l86.2,58.3
		c4.8,3.2,11.7,4.7,18.8,4l50-4.8l10.5,9.9l46.4,0.5l45-4.6c1.6-0.2,3.2-0.7,4.7-1.4c0.9,0.5,1.9,1,3,1.3l18.8,5.3
		c4.8,1.4,9.9,0,13.4-3.3c2.9-1.3,5.2-3.7,6.1-6.9c0.4-1.5,0.5-3,0.3-4.4c0.9-1.1,1.6-2.5,2.1-3.9c0.3-1.2,0.5-2.5,0.4-3.7
		c0.7-1,1.3-2.1,1.6-3.3c0.2-0.8,0.3-1.5,0.4-2.3c1.4-1.4,2.6-3.1,3.4-5c3-7.9,7.4-10.9,17-17.4l3.1-2.2c10.2-7,17.6-17.5,21-29.4
		C476,118.5,474,103.1,466.3,90.4L466.3,90.4z"/>
	<polygon class="st0" points="20.3,189.2 356.4,193.7 325.5,227 10.4,232.1 	"/>
	<path class="st1" d="M378.2,197.6c-5.1-1.4-8.9-5.5-10.2-10.4c-1.9-2.7-2.5-6.2-1.6-9.5c0.4-1.6,1.2-3,2.2-4.1
		c-0.2-1.5-0.1-3.1,0.3-4.7c0.4-1.3,0.9-2.5,1.7-3.5c-0.1-1.3,0-2.6,0.4-3.9c0.2-0.8,0.5-1.6,0.9-2.3c-0.5-2-0.6-4.2-0.2-6.3
		c1.6-8.6-0.6-13.7-5.4-24.6c-0.6-1.3-1.2-2.7-1.8-4.1c-5.8-13.4-6.2-28.3-1.1-42c9.6-25.8,37.2-41,64.2-35.4c1.3,0.3,2.6,0.6,3.9,1
		c13.7,3.9,25.3,12.8,32.7,25c8,13.3,10.2,29.5,6,44.4c-3.6,12.5-11.4,23.5-22.1,30.8l-3.3,2.3c-10.1,6.9-14.7,10-17.8,18.3
		c-0.8,2-2,3.8-3.5,5.3c0,0.8-0.2,1.6-0.4,2.4c-0.4,1.3-0.9,2.5-1.7,3.5c0.1,1.3,0,2.6-0.4,3.9c-0.4,1.6-1.2,3-2.2,4.1
		c0.2,1.5,0.1,3.1-0.3,4.7c-0.9,3.3-3.3,5.9-6.4,7.3c-3.7,3.5-9,4.9-14.1,3.5L378.2,197.6L378.2,197.6z"/>
	<g>
		<path class="st1" d="M398.7,193.6l-16-4.6c-3.8-1.1-6-5-4.9-8.8l6-21.2c1.1-3.8,5-6,8.8-4.9l16,4.6c3.8,1.1,6,5,4.9,8.8l-6,21.2
			C406.5,192.4,402.5,194.6,398.7,193.6z"/>
		<path id="_1" class="st2" d="M383,188l16,4.6l-0.6,2l-16-4.6L383,188z M376.8,179.9l2,0.6l0,0l-0.1,0.3l-0.1,0.3l0,0.3l0,0.3
			l0,0.3v0.3l0,0.3l0,0.3l0,0.3l0.1,0.3l0.1,0.3l0.1,0.3l0.1,0.3l0.1,0.3l0.1,0.3l0.1,0.3l0.1,0.3l0.2,0.2l0.2,0.2l0.2,0.2l0.2,0.2
			l0.2,0.2l0.2,0.2l0.2,0.2l0.2,0.2l0.2,0.2l0.3,0.2l0.3,0.1l0.3,0.1l0.3,0.1l0.3,0.1l0.3,0.1l-0.6,2l-0.4-0.1l-0.4-0.1l-0.4-0.2
			l-0.4-0.2l-0.4-0.2l-0.3-0.2l-0.3-0.2l-0.3-0.2l-0.3-0.3l-0.3-0.3l-0.3-0.3l-0.3-0.3l-0.2-0.3l-0.2-0.3l-0.2-0.3l-0.2-0.3
			l-0.2-0.3l-0.2-0.4l-0.1-0.4l-0.1-0.4l-0.1-0.4l-0.1-0.4l-0.1-0.4l-0.1-0.4l0-0.4l0-0.4v-0.4l0-0.4l0-0.4l0.1-0.4l0.1-0.4
			L376.8,179.9L376.8,179.9L376.8,179.9z M384.8,159.3l-6,21.2l-2-0.6l6-21.2l0,0L384.8,159.3z M392.9,153.1l-0.6,2l0,0L392,155
			l-0.3-0.1l-0.3,0l-0.3,0l-0.3,0h-0.3l-0.3,0l-0.3,0l-0.3,0l-0.3,0.1l-0.3,0.1l-0.3,0.1l-0.3,0.1l-0.3,0.1l-0.3,0.1l-0.3,0.1
			l-0.3,0.1l-0.2,0.2l-0.2,0.2l-0.2,0.2l-0.2,0.2l-0.2,0.2l-0.2,0.2l-0.2,0.2l-0.2,0.2l-0.2,0.2l-0.2,0.3l-0.1,0.3l-0.1,0.3
			l-0.1,0.3l-0.1,0.3l-0.1,0.3l-2-0.6l0.1-0.4l0.1-0.4l0.2-0.4l0.2-0.4l0.2-0.4l0.2-0.3l0.2-0.3l0.2-0.3l0.3-0.3l0.3-0.3l0.3-0.3
			l0.3-0.3l0.3-0.2l0.3-0.2l0.3-0.2l0.3-0.2l0.3-0.2l0.4-0.2l0.4-0.1l0.4-0.1l0.4-0.1l0.4-0.1l0.4-0.1l0.4-0.1l0.4,0l0.4,0h0.4
			l0.4,0l0.4,0l0.4,0.1l0.4,0.1L392.9,153.1L392.9,153.1L392.9,153.1z M408.4,159.6l-16-4.6l0.6-2l16,4.6L408.4,159.6z M414.5,167.7
			l-2-0.6l0,0l0.1-0.3l0.1-0.3l0-0.3l0-0.3l0-0.3v-0.3l0-0.3l0-0.3l0-0.3l-0.1-0.3l-0.1-0.3l-0.1-0.3l-0.1-0.3l-0.1-0.3l-0.1-0.3
			l-0.1-0.3l-0.1-0.3l-0.2-0.2l-0.2-0.2l-0.2-0.2l-0.2-0.2l-0.2-0.2l-0.2-0.2l-0.2-0.2l-0.2-0.2l-0.2-0.2l-0.3-0.2l-0.3-0.1
			l-0.3-0.1l-0.3-0.1l-0.3-0.1l-0.3-0.1l0.6-2l0.4,0.1l0.4,0.1l0.4,0.2l0.4,0.2l0.4,0.2l0.3,0.2l0.3,0.2l0.3,0.2l0.3,0.3l0.3,0.3
			l0.3,0.3l0.3,0.3l0.2,0.3l0.2,0.3l0.2,0.3l0.2,0.3l0.2,0.3l0.2,0.4l0.1,0.4l0.1,0.4l0.1,0.4l0.1,0.4l0.1,0.4l0.1,0.4l0,0.4l0,0.4
			v0.4l0,0.4l0,0.4l-0.1,0.4l-0.1,0.4L414.5,167.7L414.5,167.7L414.5,167.7z M406.5,188.4l6-21.2l2,0.6l-6,21.2L406.5,188.4z
			 M398.4,194.6l0.6-2l0,0l0.3,0.1l0.3,0.1l0.3,0l0.3,0l0.3,0h0.3l0.3,0l0.3,0l0.3,0l0.3-0.1l0.3-0.1l0.3-0.1l0.3-0.1l0.3-0.1
			l0.3-0.1l0.3-0.1l0.3-0.1l0.2-0.2l0.2-0.2l0.2-0.2l0.2-0.2l0.2-0.2l0.2-0.2l0.2-0.2l0.2-0.2l0.2-0.2l0.2-0.3l0.1-0.3l0.1-0.3
			l0.1-0.3l0.1-0.3l0.1-0.3l2,0.6l-0.1,0.4l-0.1,0.4l-0.2,0.4l-0.2,0.4l-0.2,0.4l-0.2,0.3l-0.2,0.3l-0.2,0.3l-0.3,0.3l-0.3,0.3
			l-0.3,0.3l-0.3,0.3l-0.3,0.2l-0.3,0.2l-0.3,0.2l-0.3,0.2l-0.3,0.2l-0.4,0.2l-0.4,0.1l-0.4,0.1l-0.4,0.1l-0.4,0.1l-0.4,0.1
			l-0.4,0.1l-0.4,0l-0.4,0h-0.4l-0.4,0l-0.4,0l-0.4-0.1l-0.4-0.1L398.4,194.6L398.4,194.6L398.4,194.6z"/>
	</g>
	<path class="st3" d="M456.1,77.7c-6.8-11.2-17.6-18.9-30.4-21.6c-22.4-4.7-45.4,7.9-53.3,29.4c-4.2,11.4-3.9,23.8,0.9,35
		c0.6,1.4,1.2,2.7,1.8,4c5.1,11.7,8.3,18.7,6.1,30.2c-0.5,2.6,1,5,3.6,5.8l27.4,7.8c2.5,0.7,5.1-0.6,6.1-3
		c4.2-11,10.7-15.4,21.3-22.7l3.3-2.3c8.9-6.1,15.4-15.2,18.3-25.6C464.6,102.2,462.8,88.7,456.1,77.7L456.1,77.7z"/>
	<path class="st1" d="M406.7,66.9c-5.2-1.5-10.2,1.9-14,5c-3.9,3.1-7.2,7-9.6,11.3c-5.4,9.9-5.3,21.1-0.6,31.2
		c0.4,0.9,1.6,0.2,1.4-0.6c-1.4-9.3,1-19.7,6.2-27.6c2.2-3.3,5.1-6.2,8.2-8.5c3.3-2.4,7.3-3.9,9.7-7.3
		C409.1,69.1,408.1,67.3,406.7,66.9L406.7,66.9z"/>
	<path class="st3" d="M412.3,171.1l-29.3-8.3c-1.2-0.3-2.5,0.2-2.8,1.3v0c-0.3,1.1,0.4,2.2,1.6,2.6l29.3,8.3
		c1.2,0.3,2.4-0.2,2.8-1.3v0C414.2,172.6,413.5,171.5,412.3,171.1L412.3,171.1z"/>
	<path class="st3" d="M410.2,178.5l-29.3-8.3c-1.2-0.3-2.4,0.2-2.8,1.3l0,0c-0.3,1.1,0.4,2.2,1.6,2.6l29.3,8.3
		c1.2,0.3,2.5-0.2,2.8-1.3l0,0C412.1,180,411.4,178.8,410.2,178.5L410.2,178.5z"/>
	<path class="st3" d="M407.7,187.3l-29.3-8.3c-1.2-0.3-2.4,0.2-2.8,1.3l0,0c-0.3,1.1,0.4,2.2,1.6,2.6l29.3,8.3
		c1.2,0.3,2.4-0.2,2.8-1.3l0,0C409.6,188.8,408.9,187.6,407.7,187.3L407.7,187.3z"/>
	<g>
		<path class="st4" d="M370.7,56.5c4.9-2.6,11-3.1,16.4-3.1c6.3,0,13.5,0.8,18.8,4.5c5.5,3.9,7.6,10.1,7.6,16.6v47
			c0,6.5-2.2,12.6-7.7,16.5c-5.2,3.7-12.4,4.5-18.7,4.5c-6.3,0-13.5-0.8-18.7-4.5c-5.4-3.9-7.6-10-7.6-16.5v-6.9c-0.3,0-0.5,0-0.8,0
			h-0.6v18.5c0,4.4-3.6,8-8,8h-15.5c-0.9,0-1.9-0.2-2.7-0.5c-0.8,0.3-1.8,0.5-2.7,0.5h-15.8c-1.9,0-3.6-0.6-4.9-1.7
			c-1.4,1-3,1.7-4.9,1.7h-15.5c-0.9,0-1.9-0.2-2.7-0.5c-0.8,0.3-1.8,0.5-2.7,0.5h-15.5c-0.9,0-1.9-0.2-2.7-0.5
			c-0.8,0.3-1.8,0.5-2.7,0.5h-15.5c-0.6,0-1.1-0.1-1.7-0.2c-0.5,0.1-1.1,0.2-1.7,0.2h-16.2c-0.6,0-1.2-0.1-1.8-0.2
			c-0.6,0.1-1.1,0.2-1.7,0.2h-15.5c-2.2,0-4.2-0.9-5.6-2.3c-5.1,3-11.6,3.6-17.4,3.6c-5,0-10.5-0.5-15.2-2.6
			c-1.3,0.8-2.7,1.2-4.3,1.2h-16.9c-1,0-2-0.2-3-0.6c-0.9,0.4-1.9,0.6-2.9,0.6h-15.5c-2.2,0-4.2-0.9-5.6-2.3
			c-5.1,3-11.6,3.6-17.4,3.6c-5.7,0-12.1-0.6-17.2-3.6c-1.4,1.4-3.4,2.2-5.5,2.2H67c-2.2,0-4.1-0.9-5.6-2.3
			c-3.2,1.7-6.8,2.3-10.5,2.3H25.8c-4.4,0-8-3.6-8-8V62.7c0-4.4,3.6-8,8-8h25.1c3.7,0,7.3,0.6,10.5,2.3c1.4-1.4,3.4-2.3,5.6-2.3
			h15.5c2.1,0,4.1,0.9,5.5,2.2c5.1-2.9,11.5-3.6,17.2-3.6c5.7,0,12.3,0.6,17.4,3.6c1.4-1.4,3.4-2.3,5.6-2.3h15.5c1,0,2,0.2,2.9,0.6
			c0.9-0.4,1.9-0.6,3-0.6h16.9c1.6,0,3.1,0.4,4.3,1.2c4.7-2.1,10.3-2.6,15.2-2.6c5.7,0,12.3,0.6,17.4,3.6c1.4-1.4,3.4-2.3,5.6-2.3
			h19.6c3.3,0,6.2,2,7.4,5c1.2-3,4.1-5,7.4-5h19.6c0.9,0,1.9,0.2,2.7,0.5c0.8-0.3,1.8-0.5,2.7-0.5h15.5c0.9,0,1.9,0.2,2.7,0.5
			c0.8-0.3,1.8-0.5,2.7-0.5h15.7c1.9,0,3.6,0.6,5,1.7c1.4-1.1,3.1-1.7,4.9-1.7h15.5c0.9,0,1.9,0.2,2.7,0.5c0.8-0.3,1.8-0.5,2.7-0.5
			h29.7C367.5,54.7,369.3,55.4,370.7,56.5L370.7,56.5z M360.8,84.7h-1.4v0.1h0.6c0.3,0,0.5,0,0.8,0V84.7z"/>
	</g>
	<path class="st3" d="M25.9,62.7h25.1c4.1,0,7,1,8.8,2.9c1.8,1.9,2.7,5.1,2.7,9.6v45.5c0,4.5-0.9,7.7-2.7,9.6
		c-1.8,1.9-4.7,2.9-8.8,2.9H25.9L25.9,62.7L25.9,62.7z M41.4,78.9v40.3h1.8c2.5,0,3.7-1.4,3.7-4.2V81c0-2.8-1.2-4.2-3.7-4.2H32.7v1
		L41.4,78.9L41.4,78.9z M67,62.7h15.5v70.5H67V62.7z M105.3,134.6c-6.5,0-11.2-1-14-3c-2.8-2-4.2-5.4-4.2-10v-13.2h15.5v9
		c0,1.2,0.2,2,0.6,2.5c0.4,0.5,1.1,0.7,2.1,0.7s1.7-0.2,2.2-0.7c0.4-0.5,0.7-1.3,0.7-2.5v-7.9c0-0.8-0.4-1.5-1.2-2.1L88.2,95.2
		C87.4,94.7,87,94,87,92.9V74.5c0-4.7,1.4-8.1,4.2-10.1c2.8-2,7.5-3,14-3c6.6,0,11.3,1,14.1,3c2.8,2,4.2,5.4,4.2,10.1V86h-15.5v-7.5
		c0-1.1-0.2-1.9-0.7-2.4c-0.4-0.5-1.2-0.7-2.2-0.7c-1,0-1.7,0.2-2.1,0.7c-0.4,0.5-0.6,1.3-0.6,2.4v6.2c0,0.9,0.4,1.6,1.2,2.1
		l18.6,12c0.9,0.7,1.3,1.5,1.3,2.4v20.2c0,4.6-1.4,8-4.3,10C116.5,133.6,111.8,134.6,105.3,134.6L105.3,134.6z M128.2,62.7h15.5
		v29.2l5.9-29.2h16.9l-12,35.4l12,35.1h-16.9l-8.5-31.9h-1l3.7,15.4v16.5h-15.5V62.7L128.2,62.7z M186.2,134.6c-6.5,0-11.2-1-14-3
		c-2.8-2-4.2-5.4-4.2-10v-47c0-4.7,1.4-8.1,4.2-10.1c2.8-2,7.5-3,14-3c6.6,0,11.3,1,14.1,3c2.8,2,4.2,5.4,4.2,10.1v47
		c0,4.6-1.4,8-4.3,10C197.4,133.6,192.7,134.6,186.2,134.6z M183.4,117.3c0,1.2,0.2,2,0.6,2.5c0.4,0.5,1.1,0.7,2.1,0.7
		c1,0,1.7-0.2,2.2-0.7c0.4-0.5,0.7-1.3,0.7-2.5V78.6c0-1.1-0.2-1.9-0.7-2.4c-0.4-0.5-1.2-0.7-2.2-0.7c-1,0-1.7,0.2-2.1,0.7
		c-0.4,0.5-0.6,1.3-0.6,2.4V117.3z M209.1,62.7h19.6l11.9,59.2h1l-3.8-25.3l5.8-33.9h19.6v70.5h-15.5v-9.4l4.5-39.7h-1l-6.8,49
		h-16.2l-7.1-49h-1l4.6,39.7v9.4h-15.5L209.1,62.7L209.1,62.7z M268.5,62.7h15.5v70.5h-15.5V62.7L268.5,62.7z M289.5,62.7h15.7
		l16.8,49.1h1L315,87V62.7h15.5v70.5h-15.8L298,83.9h-1l8,25v24.4h-15.5V62.7L289.5,62.7z M335.9,62.7h29.7v13.9h-22.9v1l8.7,1.2
		v13.9h8.6v13.9h-17.3v1l8.7,1.2v24.4h-15.5L335.9,62.7L335.9,62.7z M387.1,134.6c-6.5,0-11.2-1-14-3c-2.8-2-4.2-5.4-4.2-10v-47
		c0-4.7,1.4-8.1,4.2-10.1c2.8-2,7.5-3,14-3c6.6,0,11.3,1,14.1,3c2.8,2,4.2,5.4,4.2,10.1v47c0,4.6-1.4,8-4.3,10
		C398.3,133.6,393.6,134.6,387.1,134.6L387.1,134.6z M384.4,117.3c0,1.2,0.2,2,0.6,2.5c0.4,0.5,1.1,0.7,2.1,0.7c1,0,1.7-0.2,2.2-0.7
		c0.4-0.5,0.7-1.3,0.7-2.5V78.6c0-1.1-0.2-1.9-0.7-2.4c-0.4-0.5-1.2-0.7-2.2-0.7c-1,0-1.7,0.2-2.1,0.7c-0.4,0.5-0.6,1.3-0.6,2.4
		V117.3z"/>
	<g>
		<path class="st4" d="M259.4,133.2c0.3,0,0.6,0,0.9,0h18c0.7,0,1.3,0.1,1.9,0.2c0.6-0.2,1.3-0.2,2-0.2h16.2c3.6,0,6.7,2.3,7.7,5.8
			c0.8,2.9,0,5.9-2.1,7.9l-6.9,40.1c1,1.9,1.1,4.1,0.3,6.3c-1.2,3.2-4.1,5.3-7.5,5.3h-16.6c-0.7,0-1.4-0.1-2.1-0.3
			c-0.7,0.2-1.4,0.3-2.1,0.3H252c-0.2,0-0.4,0-0.6,0c-0.2,0-0.4,0-0.6,0h-32.5c-0.1,0-0.1,0-0.2,0c-0.1,0-0.1,0-0.2,0h-16.6
			c-1.3,0-2.4-0.3-3.5-0.8c-1.1,0.5-2.3,0.8-3.5,0.8h-17.6c-0.2,0-0.4,0-0.6,0c-0.2,0-0.4,0-0.6,0h-32.5c0,0-0.1,0-0.1,0
			c0,0-0.1,0-0.1,0h-17.3c-1.8,0-3.5-0.6-4.8-1.6c-1.3,1-3,1.6-4.8,1.6H98.4c-3.7,0-6.7-2.4-7.7-5.9c-0.8-3,0.1-6.1,2.3-8.1
			l7.1-40.5c-0.8-1.8-0.8-3.8-0.1-5.8c1.2-3.2,4.1-5.3,7.5-5.3h17c0.7,0,1.5,0.1,2.1,0.3c0.7-0.2,1.4-0.3,2.1-0.3h18.6
			c0.7,0,1.3,0.1,2,0.2c0.5-0.1,1.1-0.2,1.6-0.2l32.2-0.1c0.3,0,0.7,0,1,0.1c0.3,0,0.6-0.1,1-0.1h30c2.2,0,4.2,0.8,5.6,2.3
			c1.4-1.4,3.4-2.2,5.5-2.2l32.2-0.1C258.8,133.2,259.1,133.2,259.4,133.2L259.4,133.2z"/>
	</g>
	<path class="st3" d="M124.5,141.2l-1.8,1.1l-3.9,22.3l10.7-20.6l7,3.7l-7.8-6.5h18.6l-1.8,1.1l-13.1,23l8.9,23.5l-2.7-1.3l3.9,3.2
		h-17.3l1.9-1.1l-8.6-23.8l-4,23.1l-2.7-1.3l3.9,3.2H98.4l1.9-1.1l7.9-45.6l7,3.7l-7.8-6.5L124.5,141.2L124.5,141.2z M183.2,141.2
		l-1.8,1.1l1.5,4.8l-3.4,6.9l-2-1.1l-12.9-0.1l-1.3,7.3h14.1l-1.8,1.1l1.6,5l-3.7,7l-1.5-1.5h-16.8l5.9,1.6l-0.9,5.8h13.2l2.1-1.5
		l1.4,5.8l-3.4,6.3l1.8,1.1h-32.5l5.5-4.1l-3.9,1.5l7.3-44.1l7,3.7l-7.8-6.4L183.2,141.2L183.2,141.2z M185.1,141.2h30l-1.8,1.1
		c2,1.2,3.3,2.9,4,5c0.7,2.1,0.7,5.1,0.1,8.9c-0.4,1.9-0.7,3.5-0.9,4.6c-0.3,1.1-0.7,2.5-1.2,4.2c-0.6,1.6-1.3,3.1-2.3,4.4
		c-1,1.3-2.2,2.5-3.6,3.6l-6.3,1.5l5.9-0.2l6.7,15.3l2.1,1.1h-16.6l-0.2-1.1l-6-13.7l-2.1,12.9l-2.7-1.2l4,3.2h-17.6l1.9-1.1
		L186,144l6.9,3.6L185.1,141.2L185.1,141.2z M198.9,152.7l-2.2,12.1h6.9l1.9-10.8l3.1-1.3H198.9L198.9,152.7z M258.5,141.2l-1.8,1.1
		l1.5,4.8l-3.4,6.9l-2-1.1l-12.9-0.1l-1.3,7.3h14.1l-1.8,1.1l1.6,5l-3.7,7l-1.5-1.5h-16.8l5.9,1.6l-0.9,5.8h13.2l2.1-1.5l1.4,5.8
		l-3.4,6.3l1.8,1.1h-32.5l5.5-4.1l-3.9,1.5l7.3-44.1l7,3.7l-7.8-6.4L258.5,141.2L258.5,141.2z M278.3,141.2l-1.8,1.1l4,15.6l2.4-14
		l7.2,3.7l-7.9-6.5h16.2l-1.8,1.1l-7.9,46.5l-2.7-1.3l3.9,3.2h-16.6l1.6-1.1l-4-16.6l-2.7,15.8l-2.9-1.4l3.9,3.2H252l1.8-1.1
		l7.6-45.5l6.9,3.6l-7.9-6.5L278.3,141.2L278.3,141.2z"/>
	<g>
		<path class="st1" d="M41.4,206.2c0,0.1,0,0.3-0.1,0.4c-0.1,0.1-0.2,0.3-0.4,0.5l-4.7,5l2.8,5.9c0.1,0.1,0.1,0.3,0.1,0.4
			c0,0.1,0,0.2,0,0.3c0,0.1,0,0.2-0.1,0.2c0,0.1-0.1,0.1-0.2,0.2c-0.1,0-0.3,0.1-0.4,0.1c-0.2,0-0.4,0-0.7,0c-0.3,0-0.5,0-0.7,0
			c-0.2,0-0.3,0-0.4-0.1c-0.1,0-0.2-0.1-0.2-0.1c0-0.1-0.1-0.1-0.1-0.2l-2.8-6.3l-1.2,6.3c0,0.1,0,0.1-0.1,0.2
			c-0.1,0.1-0.1,0.1-0.3,0.1c-0.1,0-0.3,0.1-0.4,0.1c-0.2,0-0.4,0-0.7,0c-0.3,0-0.5,0-0.7,0c-0.2,0-0.3,0-0.4-0.1
			c-0.1,0-0.2-0.1-0.2-0.1c0-0.1,0-0.1,0-0.2l2.5-12.6c0-0.1,0-0.1,0.1-0.2c0.1-0.1,0.1-0.1,0.3-0.1c0.1,0,0.3-0.1,0.4-0.1
			c0.2,0,0.4,0,0.7,0c0.3,0,0.5,0,0.6,0c0.2,0,0.3,0,0.4,0.1c0.1,0,0.2,0.1,0.2,0.1c0,0.1,0,0.1,0,0.2l-1.1,5.7l4.9-5.7
			c0.1-0.1,0.1-0.2,0.2-0.2c0.1-0.1,0.2-0.1,0.3-0.1c0.1,0,0.3-0.1,0.5-0.1c0.2,0,0.4,0,0.7,0c0.3,0,0.5,0,0.7,0
			c0.2,0,0.3,0,0.4,0.1c0.1,0,0.2,0.1,0.2,0.1C41.4,206.1,41.5,206.1,41.4,206.2L41.4,206.2z M48.3,209.5c0,0,0,0.1,0,0.3
			c0,0.1,0,0.3-0.1,0.4c0,0.2-0.1,0.3-0.1,0.5c0,0.2-0.1,0.3-0.1,0.5c-0.1,0.2-0.1,0.3-0.2,0.4c-0.1,0.1-0.1,0.1-0.2,0.1
			c-0.1,0-0.1,0-0.2,0c-0.1,0-0.1,0-0.2-0.1c-0.1,0-0.2,0-0.2-0.1c-0.1,0-0.2,0-0.3,0c-0.2,0-0.5,0.1-0.7,0.3
			c-0.3,0.2-0.5,0.4-0.8,0.7c-0.2,0.3-0.5,0.6-0.6,1c-0.2,0.4-0.3,0.8-0.4,1.2l-0.8,4.1c0,0.1,0,0.1-0.1,0.2c0,0.1-0.1,0.1-0.2,0.1
			c-0.1,0-0.2,0.1-0.4,0.1c-0.2,0-0.4,0-0.6,0c-0.3,0-0.5,0-0.6,0c-0.2,0-0.3,0-0.4-0.1c-0.1,0-0.2-0.1-0.2-0.1c0-0.1,0-0.1,0-0.2
			l1.8-9.2c0-0.1,0-0.1,0.1-0.2c0-0.1,0.1-0.1,0.2-0.1c0.1,0,0.2-0.1,0.4-0.1c0.1,0,0.3,0,0.5,0c0.2,0,0.4,0,0.5,0
			c0.1,0,0.2,0,0.3,0.1c0.1,0,0.1,0.1,0.2,0.1c0,0.1,0,0.1,0,0.2l-0.3,1.5c0.2-0.3,0.4-0.6,0.6-0.8c0.2-0.2,0.4-0.5,0.7-0.6
			c0.2-0.2,0.5-0.3,0.8-0.4c0.3-0.1,0.5-0.2,0.8-0.2c0.1,0,0.2,0,0.3,0c0.1,0,0.2,0,0.3,0c0.1,0,0.2,0,0.3,0.1
			c0.1,0,0.1,0.1,0.2,0.1C48.3,209.3,48.3,209.4,48.3,209.5L48.3,209.5z M58.6,206.2c0,0,0,0.1,0,0.2c0,0.1,0,0.2,0,0.3
			c0,0.1,0,0.3-0.1,0.4c0,0.1-0.1,0.3-0.1,0.4c0,0.1-0.1,0.2-0.2,0.3c-0.1,0.1-0.2,0.1-0.2,0.1h-4.8l-0.7,3.2h4c0.1,0,0.2,0,0.2,0.1
			c0,0.1,0.1,0.2,0.1,0.3c0,0,0,0.1,0,0.2c0,0.1,0,0.2,0,0.3c0,0.1,0,0.3-0.1,0.4c0,0.1-0.1,0.3-0.1,0.4c0,0.1-0.1,0.2-0.2,0.3
			c-0.1,0.1-0.1,0.1-0.2,0.1h-4l-0.8,3.8h4.8c0.1,0,0.1,0,0.2,0.1c0,0.1,0.1,0.2,0.1,0.3c0,0,0,0.1,0,0.2c0,0.1,0,0.2,0,0.3
			c0,0.1-0.1,0.3-0.1,0.4c0,0.1-0.1,0.3-0.1,0.4c-0.1,0.1-0.1,0.2-0.2,0.3c-0.1,0.1-0.1,0.1-0.2,0.1H49c-0.1,0-0.2,0-0.3,0
			c-0.1,0-0.2-0.1-0.2-0.2c-0.1-0.1-0.1-0.2-0.1-0.3c0-0.1,0-0.2,0-0.4l2.3-11.6c0.1-0.3,0.2-0.5,0.4-0.7c0.2-0.1,0.4-0.2,0.6-0.2
			h6.6C58.5,205.8,58.6,206,58.6,206.2L58.6,206.2z M66.6,218.8c0,0.1-0.1,0.2-0.3,0.3c-0.2,0.1-0.5,0.1-0.9,0.1c-0.2,0-0.4,0-0.5,0
			c-0.1,0-0.2,0-0.3-0.1c-0.1,0-0.1-0.1-0.2-0.1c0-0.1,0-0.1,0-0.2l0.3-1.5c-0.1,0.2-0.3,0.5-0.5,0.7c-0.2,0.2-0.5,0.5-0.8,0.7
			c-0.3,0.2-0.7,0.4-1,0.5c-0.4,0.1-0.8,0.2-1.2,0.2c-0.5,0-1-0.1-1.4-0.3c-0.4-0.2-0.7-0.4-0.9-0.8c-0.2-0.3-0.4-0.7-0.5-1.1
			c-0.1-0.4-0.1-0.9-0.1-1.3c0-0.4,0-0.9,0.1-1.4c0.1-0.5,0.2-1,0.4-1.5c0.2-0.5,0.4-1,0.7-1.5c0.3-0.5,0.6-0.9,1-1.2
			c0.4-0.4,0.8-0.7,1.3-0.9c0.5-0.2,1-0.3,1.6-0.3c0.6,0,1.1,0.1,1.5,0.4c0.4,0.2,0.8,0.6,1.1,1l0.2-0.8c0-0.1,0.1-0.2,0.3-0.3
			c0.2-0.1,0.5-0.1,0.9-0.1c0.2,0,0.4,0,0.5,0c0.1,0,0.2,0,0.3,0.1c0.1,0,0.1,0.1,0.2,0.1c0,0.1,0,0.1,0,0.2L66.6,218.8L66.6,218.8z
			 M65.3,212.4c-0.2-0.4-0.5-0.7-0.8-0.8c-0.3-0.2-0.6-0.3-1-0.3c-0.3,0-0.6,0.1-0.8,0.2c-0.2,0.1-0.5,0.3-0.6,0.6
			c-0.2,0.2-0.4,0.5-0.5,0.8c-0.1,0.3-0.3,0.6-0.4,0.9c-0.1,0.3-0.2,0.7-0.2,1c0,0.3-0.1,0.6-0.1,0.9c0,0.2,0,0.4,0,0.6
			c0,0.2,0.1,0.4,0.2,0.5c0.1,0.1,0.2,0.3,0.3,0.3c0.1,0.1,0.3,0.1,0.5,0.1c0.3,0,0.6-0.1,0.9-0.3c0.3-0.2,0.6-0.4,0.9-0.7
			c0.3-0.3,0.5-0.7,0.7-1.1c0.2-0.4,0.4-0.9,0.5-1.3L65.3,212.4L65.3,212.4z M78.9,218.8c0,0.1,0,0.1-0.1,0.2
			c-0.1,0.1-0.1,0.1-0.2,0.1c-0.1,0-0.2,0.1-0.4,0.1c-0.2,0-0.4,0-0.6,0c-0.2,0-0.5,0-0.6,0c-0.2,0-0.3,0-0.4-0.1
			c-0.1,0-0.2-0.1-0.2-0.1c0-0.1,0-0.1,0-0.2l1.5-7.4h-4.1l-0.9,4.3c0,0.1,0,0.2-0.1,0.4s0,0.3,0,0.3c0,0.3,0.1,0.5,0.2,0.6
			c0.1,0.1,0.3,0.2,0.6,0.2c0.2,0,0.3,0,0.4,0c0.1,0,0.2-0.1,0.3-0.1c0.1,0,0.2-0.1,0.2-0.1c0.1,0,0.1,0,0.2,0c0.1,0,0.1,0,0.1,0.1
			c0,0,0.1,0.1,0.1,0.2c0,0.1,0,0.3,0,0.4c0,0.2-0.1,0.3-0.1,0.5c0,0.2-0.1,0.3-0.2,0.4c-0.1,0.1-0.1,0.2-0.2,0.3
			c-0.1,0.1-0.2,0.1-0.3,0.2c-0.1,0.1-0.3,0.1-0.4,0.1c-0.2,0-0.3,0.1-0.5,0.1c-0.2,0-0.4,0-0.6,0c-0.4,0-0.8,0-1.1-0.1
			c-0.3-0.1-0.6-0.2-0.8-0.4c-0.2-0.2-0.4-0.4-0.5-0.7c-0.1-0.3-0.2-0.6-0.2-1.1c0-0.1,0-0.2,0-0.3c0-0.1,0-0.2,0-0.3
			c0-0.1,0-0.2,0.1-0.3c0-0.1,0-0.2,0.1-0.3l0.9-4.5H70c-0.1,0-0.2,0-0.2-0.1c0-0.1-0.1-0.2-0.1-0.3c0-0.1,0-0.3,0-0.5
			c0-0.2,0.1-0.4,0.1-0.6c0.1-0.2,0.1-0.3,0.2-0.5c0.1-0.1,0.2-0.2,0.3-0.2h1.1l0.4-2.1c0-0.1,0-0.1,0.1-0.2c0-0.1,0.1-0.1,0.2-0.1
			c0.1,0,0.2-0.1,0.4-0.1c0.2,0,0.4,0,0.6,0c0.2,0,0.4,0,0.6,0c0.2,0,0.3,0,0.4,0.1c0.1,0,0.2,0.1,0.2,0.1c0,0.1,0,0.1,0,0.2
			l-0.4,2.1h5.9c0.3,0,0.5,0.1,0.6,0.2c0.1,0.1,0.1,0.3,0.1,0.5L78.9,218.8L78.9,218.8z M81.6,206.5c0,0.3-0.1,0.5-0.2,0.6
			c-0.1,0.2-0.2,0.3-0.3,0.4c-0.1,0.1-0.3,0.2-0.5,0.2c-0.2,0-0.4,0.1-0.7,0.1c-0.3,0-0.5,0-0.7-0.1c-0.2,0-0.3-0.1-0.4-0.2
			c-0.1-0.1-0.1-0.2-0.2-0.4c0-0.2,0-0.4,0.1-0.6c0.1-0.2,0.1-0.5,0.2-0.6c0.1-0.2,0.2-0.3,0.3-0.4c0.1-0.1,0.3-0.2,0.5-0.2
			c0.2,0,0.4-0.1,0.7-0.1c0.3,0,0.5,0,0.7,0.1c0.2,0,0.3,0.1,0.4,0.2c0.1,0.1,0.1,0.2,0.2,0.4C81.6,206.1,81.6,206.3,81.6,206.5z
			 M89.7,205.4c0,0,0,0.1,0,0.2c0,0.1,0,0.2,0,0.3c0,0.1,0,0.2-0.1,0.4c0,0.1-0.1,0.2-0.1,0.3c0,0.1-0.1,0.2-0.1,0.3
			c0,0.1-0.1,0.1-0.2,0.1c0,0-0.1,0-0.2,0c-0.1,0-0.1,0-0.2-0.1c-0.1,0-0.2,0-0.3-0.1c-0.1,0-0.2,0-0.3,0c-0.2,0-0.4,0-0.6,0.1
			c-0.2,0.1-0.3,0.2-0.4,0.3c-0.1,0.1-0.2,0.3-0.3,0.5c-0.1,0.2-0.1,0.5-0.2,0.8l-0.2,0.8h1.7c0.1,0,0.2,0,0.2,0.1
			c0,0.1,0.1,0.2,0.1,0.3c0,0.1,0,0.2,0,0.3c0,0.1,0,0.2-0.1,0.4c0,0.1-0.1,0.3-0.1,0.4c0,0.1-0.1,0.2-0.1,0.3
			c0,0.1-0.1,0.2-0.2,0.3c-0.1,0.1-0.1,0.1-0.2,0.1h-1.7l-1.6,8.1c-0.1,0.6-0.3,1.1-0.5,1.5c-0.2,0.4-0.5,0.8-0.8,1.1
			c-0.3,0.3-0.7,0.5-1.1,0.7c-0.4,0.1-0.9,0.2-1.4,0.2c-0.4,0-0.7,0-0.9-0.1c-0.2-0.1-0.4-0.1-0.5-0.2c0,0-0.1-0.1-0.1-0.1
			c0,0,0-0.1,0-0.2c0,0,0-0.1,0-0.2c0-0.1,0-0.2,0-0.3c0-0.1,0-0.2,0.1-0.4c0-0.1,0.1-0.2,0.1-0.3c0-0.1,0.1-0.2,0.1-0.3
			c0-0.1,0.1-0.1,0.2-0.1c0,0,0.1,0,0.1,0c0,0,0.1,0,0.1,0c0,0,0.1,0,0.2,0c0.1,0,0.2,0,0.3,0c0.2,0,0.4,0,0.6-0.1
			c0.2-0.1,0.3-0.2,0.4-0.3c0.1-0.1,0.2-0.3,0.3-0.5c0.1-0.2,0.2-0.5,0.2-0.8l1.6-7.7h-1.2c-0.1,0-0.1,0-0.2-0.1
			c0-0.1-0.1-0.2-0.1-0.3c0-0.1,0-0.2,0-0.3c0-0.1,0-0.2,0.1-0.4c0-0.1,0.1-0.2,0.1-0.4c0-0.1,0.1-0.2,0.1-0.3
			c0.1-0.1,0.1-0.2,0.2-0.3c0.1-0.1,0.1-0.1,0.2-0.1h1.1l0.2-1c0.1-0.6,0.3-1.1,0.5-1.5c0.2-0.4,0.5-0.8,0.8-1.1
			c0.3-0.3,0.7-0.5,1.1-0.7c0.4-0.1,0.9-0.2,1.4-0.2c0.2,0,0.4,0,0.5,0c0.2,0,0.3,0,0.5,0.1c0.1,0,0.3,0.1,0.4,0.1s0.2,0.1,0.2,0.1
			c0,0,0.1,0.1,0.1,0.1C89.7,205.3,89.7,205.4,89.7,205.4L89.7,205.4z M104.3,208.7c0,0.4-0.1,0.9-0.2,1.3c-0.1,0.4-0.3,0.8-0.6,1.2
			c-0.3,0.4-0.6,0.7-1,1c-0.4,0.3-0.9,0.6-1.5,0.7c0.3,0.1,0.6,0.4,0.8,0.8c0.2,0.4,0.4,0.9,0.6,1.6l0.5,2.7c0,0.2,0.1,0.3,0.1,0.4
			c0,0.1,0,0.2,0,0.3c0,0.1,0,0.1-0.1,0.2c0,0-0.1,0.1-0.2,0.1c-0.1,0-0.3,0.1-0.5,0.1c-0.2,0-0.5,0-0.8,0c-0.3,0-0.5,0-0.7,0
			c-0.2,0-0.3,0-0.4-0.1c-0.1,0-0.2-0.1-0.2-0.1c0-0.1-0.1-0.1-0.1-0.2l-0.5-3c-0.1-0.3-0.1-0.6-0.2-0.9c-0.1-0.3-0.2-0.5-0.4-0.7
			c-0.1-0.2-0.3-0.3-0.5-0.4c-0.2-0.1-0.5-0.1-0.8-0.1h-0.9l-1,5.1c0,0.1,0,0.1-0.1,0.2c-0.1,0.1-0.1,0.1-0.3,0.1
			c-0.1,0-0.3,0.1-0.4,0.1c-0.2,0-0.4,0-0.7,0c-0.3,0-0.5,0-0.6,0c-0.2,0-0.3,0-0.4-0.1c-0.1,0-0.2-0.1-0.2-0.1c0-0.1,0-0.1,0-0.2
			l2.4-12.1c0.1-0.3,0.2-0.5,0.4-0.7c0.2-0.1,0.4-0.2,0.7-0.2h3.6c0.6,0,1.2,0.1,1.7,0.2c0.5,0.1,0.9,0.3,1.3,0.5
			c0.4,0.2,0.6,0.5,0.8,0.9C104.2,207.8,104.3,208.2,104.3,208.7L104.3,208.7z M101.3,209.2c0-0.2,0-0.4-0.1-0.5
			c-0.1-0.2-0.2-0.3-0.3-0.4c-0.1-0.1-0.3-0.2-0.6-0.3c-0.2-0.1-0.5-0.1-0.8-0.1H98l-0.8,3.8h1.3c0.5,0,1-0.1,1.3-0.2
			c0.4-0.1,0.6-0.3,0.9-0.6c0.2-0.2,0.4-0.5,0.5-0.8C101.3,209.8,101.3,209.5,101.3,209.2L101.3,209.2z M114.1,211.7
			c0,0.5-0.1,0.9-0.3,1.3c-0.2,0.4-0.6,0.7-1,1c-0.5,0.3-1.1,0.5-1.8,0.7c-0.7,0.2-1.6,0.2-2.6,0.2h-0.9c0,0.2,0,0.3-0.1,0.5
			c0,0.2,0,0.3,0,0.4c0,0.6,0.1,1,0.4,1.3c0.3,0.3,0.7,0.4,1.4,0.4c0.5,0,0.9,0,1.2-0.1c0.4-0.1,0.7-0.1,0.9-0.2
			c0.3-0.1,0.5-0.2,0.7-0.2c0.2-0.1,0.3-0.1,0.4-0.1c0.1,0,0.1,0,0.2,0.1c0,0,0.1,0.1,0.1,0.2c0,0.1,0,0.2,0,0.4
			c0,0.2,0,0.3-0.1,0.4c0,0.1-0.1,0.3-0.1,0.4c-0.1,0.1-0.1,0.2-0.2,0.3c-0.1,0.1-0.2,0.2-0.5,0.2c-0.2,0.1-0.5,0.2-0.8,0.2
			c-0.3,0.1-0.7,0.1-1,0.2c-0.4,0-0.8,0.1-1.2,0.1c-0.7,0-1.2-0.1-1.7-0.2c-0.5-0.1-0.9-0.3-1.2-0.6c-0.3-0.3-0.6-0.6-0.7-1.1
			c-0.2-0.4-0.2-1-0.2-1.6c0-0.5,0-1,0.1-1.5c0.1-0.5,0.2-1,0.4-1.6c0.2-0.5,0.4-1,0.7-1.5c0.3-0.5,0.7-0.9,1.1-1.2
			c0.4-0.4,0.9-0.6,1.5-0.8c0.6-0.2,1.2-0.3,1.9-0.3c0.6,0,1.2,0.1,1.6,0.2c0.4,0.1,0.8,0.3,1.1,0.6c0.3,0.2,0.5,0.5,0.6,0.8
			C114,211,114.1,211.3,114.1,211.7L114.1,211.7z M111.5,211.8c0-0.3-0.1-0.5-0.3-0.7c-0.2-0.2-0.5-0.3-0.9-0.3
			c-0.3,0-0.7,0.1-0.9,0.2c-0.3,0.1-0.5,0.3-0.7,0.5c-0.2,0.2-0.4,0.5-0.5,0.7c-0.1,0.3-0.3,0.6-0.4,0.9h0.9c0.5,0,1,0,1.4-0.1
			c0.4-0.1,0.7-0.2,0.9-0.3c0.2-0.1,0.4-0.3,0.5-0.4C111.5,212.2,111.5,212,111.5,211.8L111.5,211.8z M122.4,210c0,0.1,0,0.2,0,0.4
			c0,0.2-0.1,0.3-0.1,0.5c0,0.2-0.1,0.3-0.2,0.4c-0.1,0.1-0.1,0.2-0.2,0.2c-0.1,0-0.2,0-0.3-0.1c-0.1-0.1-0.3-0.1-0.4-0.2
			c-0.2-0.1-0.4-0.1-0.6-0.2c-0.2-0.1-0.5-0.1-0.8-0.1c-0.2,0-0.5,0-0.6,0.1c-0.2,0.1-0.3,0.1-0.5,0.3c-0.1,0.1-0.2,0.2-0.3,0.4
			c-0.1,0.1-0.1,0.3-0.1,0.5c0,0.2,0.1,0.4,0.3,0.5c0.2,0.1,0.4,0.3,0.7,0.4c0.3,0.1,0.5,0.3,0.8,0.4c0.3,0.1,0.6,0.3,0.8,0.5
			c0.3,0.2,0.5,0.5,0.6,0.8c0.2,0.3,0.3,0.7,0.3,1.1c0,0.5-0.1,1-0.3,1.4c-0.2,0.4-0.5,0.8-0.9,1.1c-0.4,0.3-0.8,0.6-1.4,0.8
			c-0.5,0.2-1.2,0.3-1.8,0.3c-0.3,0-0.6,0-0.9-0.1c-0.3,0-0.6-0.1-0.8-0.2c-0.2-0.1-0.4-0.1-0.6-0.2c-0.2-0.1-0.3-0.2-0.4-0.2
			c-0.1-0.1-0.1-0.1-0.1-0.2c0-0.1,0-0.1,0-0.2c0-0.1,0-0.1,0-0.2c0-0.1,0-0.2,0.1-0.3c0-0.1,0.1-0.2,0.1-0.4c0-0.1,0.1-0.2,0.1-0.3
			c0-0.1,0.1-0.2,0.1-0.2c0-0.1,0.1-0.1,0.2-0.1c0.1,0,0.2,0,0.3,0.1c0.1,0.1,0.3,0.2,0.5,0.3c0.2,0.1,0.4,0.2,0.7,0.3
			c0.3,0.1,0.6,0.1,1,0.1c0.3,0,0.5,0,0.7-0.1c0.2-0.1,0.4-0.2,0.5-0.3c0.1-0.1,0.2-0.3,0.3-0.4c0.1-0.2,0.1-0.3,0.1-0.5
			c0-0.2-0.1-0.4-0.3-0.6c-0.2-0.2-0.4-0.3-0.6-0.4s-0.5-0.3-0.8-0.4c-0.3-0.1-0.6-0.3-0.8-0.5c-0.3-0.2-0.5-0.4-0.6-0.7
			c-0.2-0.3-0.3-0.7-0.3-1.1c0-0.5,0.1-0.9,0.3-1.4c0.2-0.4,0.5-0.8,0.8-1.1c0.4-0.3,0.8-0.6,1.3-0.7c0.5-0.2,1.1-0.3,1.7-0.3
			c0.3,0,0.6,0,0.8,0.1c0.3,0,0.5,0.1,0.7,0.1c0.2,0.1,0.4,0.1,0.6,0.2c0.2,0.1,0.3,0.2,0.3,0.2C122.4,209.7,122.4,209.9,122.4,210
			L122.4,210z M133.3,212.5c0,0.4,0,0.9-0.1,1.4c-0.1,0.5-0.2,1-0.4,1.5c-0.2,0.5-0.4,1-0.7,1.5c-0.3,0.5-0.6,0.9-1,1.2
			c-0.4,0.4-0.8,0.6-1.3,0.9c-0.5,0.2-1,0.3-1.6,0.3c-0.3,0-0.5,0-0.8-0.1c-0.2-0.1-0.5-0.1-0.7-0.2c-0.2-0.1-0.4-0.2-0.5-0.3
			c-0.2-0.1-0.3-0.3-0.4-0.4l-0.8,4.1c0,0.1,0,0.1-0.1,0.2c-0.1,0.1-0.1,0.1-0.2,0.1c-0.1,0-0.2,0.1-0.4,0.1c-0.2,0-0.4,0-0.6,0
			c-0.3,0-0.5,0-0.6,0c-0.2,0-0.3,0-0.4-0.1c-0.1,0-0.2-0.1-0.2-0.1c0-0.1,0-0.1,0-0.2l2.6-12.8c0-0.1,0.1-0.2,0.3-0.3
			c0.2-0.1,0.5-0.1,0.9-0.1c0.2,0,0.4,0,0.5,0c0.1,0,0.2,0,0.3,0.1c0.1,0,0.1,0.1,0.2,0.1c0,0.1,0,0.1,0,0.2l-0.3,1.5
			c0.1-0.2,0.3-0.5,0.5-0.7c0.2-0.2,0.5-0.5,0.8-0.7c0.3-0.2,0.7-0.4,1-0.5s0.8-0.2,1.2-0.2c0.5,0,1,0.1,1.3,0.3
			c0.4,0.2,0.7,0.4,0.9,0.7c0.2,0.3,0.4,0.7,0.5,1.1C133.3,211.6,133.3,212.1,133.3,212.5L133.3,212.5z M130.7,212.8
			c0-0.2,0-0.4-0.1-0.6c0-0.2-0.1-0.4-0.2-0.5c-0.1-0.1-0.2-0.2-0.3-0.3c-0.1-0.1-0.3-0.1-0.5-0.1c-0.3,0-0.6,0.1-0.9,0.3
			c-0.3,0.2-0.6,0.4-0.9,0.7c-0.3,0.3-0.5,0.7-0.7,1.1c-0.2,0.4-0.4,0.9-0.4,1.3l-0.3,1.4c0.2,0.4,0.5,0.7,0.8,0.8
			c0.3,0.2,0.6,0.3,1,0.3c0.3,0,0.5-0.1,0.8-0.2c0.2-0.1,0.4-0.3,0.6-0.5c0.2-0.2,0.4-0.5,0.5-0.8c0.1-0.3,0.3-0.6,0.4-0.9
			c0.1-0.3,0.2-0.7,0.2-1C130.7,213.4,130.7,213.1,130.7,212.8L130.7,212.8z"/>
		<path class="st1" d="M144.5,212.7c0,0.5,0,1-0.1,1.5c-0.1,0.5-0.2,1-0.4,1.5c-0.2,0.5-0.5,1-0.8,1.4c-0.3,0.4-0.7,0.8-1.1,1.2
			c-0.4,0.3-0.9,0.6-1.5,0.8c-0.6,0.2-1.2,0.3-1.9,0.3c-0.7,0-1.3-0.1-1.8-0.2c-0.5-0.2-0.9-0.4-1.3-0.7c-0.3-0.3-0.6-0.7-0.8-1.2
			c-0.2-0.5-0.2-1-0.2-1.6c0-0.5,0-1,0.1-1.5c0.1-0.5,0.2-1,0.4-1.5c0.2-0.5,0.5-1,0.8-1.4c0.3-0.4,0.7-0.8,1.1-1.2
			c0.4-0.3,0.9-0.6,1.5-0.8c0.6-0.2,1.2-0.3,1.9-0.3c0.7,0,1.3,0.1,1.8,0.2c0.5,0.2,0.9,0.4,1.3,0.7c0.3,0.3,0.6,0.7,0.8,1.2
			C144.4,211.6,144.5,212.1,144.5,212.7L144.5,212.7z M141.8,212.9c0-0.3,0-0.5-0.1-0.8c-0.1-0.2-0.2-0.4-0.3-0.6
			c-0.1-0.2-0.3-0.3-0.5-0.4c-0.2-0.1-0.5-0.1-0.8-0.1c-0.3,0-0.7,0.1-0.9,0.2s-0.5,0.3-0.7,0.5c-0.2,0.2-0.4,0.5-0.6,0.8
			c-0.2,0.3-0.3,0.6-0.4,0.9c-0.1,0.3-0.2,0.7-0.2,1c0,0.3-0.1,0.7-0.1,1c0,0.3,0,0.5,0.1,0.8c0.1,0.2,0.2,0.4,0.3,0.6
			c0.1,0.2,0.3,0.3,0.5,0.4c0.2,0.1,0.5,0.1,0.8,0.1c0.3,0,0.7-0.1,0.9-0.2c0.3-0.1,0.5-0.3,0.7-0.5c0.2-0.2,0.4-0.5,0.6-0.8
			c0.2-0.3,0.3-0.6,0.4-0.9c0.1-0.3,0.2-0.7,0.2-1C141.8,213.5,141.8,213.2,141.8,212.9L141.8,212.9z M155.3,211.7
			c0,0.2,0,0.5,0,0.7c0,0.2-0.1,0.5-0.1,0.7l-1.1,5.7c0,0.1,0,0.1-0.1,0.2c-0.1,0.1-0.1,0.1-0.2,0.1c-0.1,0-0.2,0.1-0.4,0.1
			c-0.2,0-0.4,0-0.6,0c-0.3,0-0.5,0-0.6,0c-0.2,0-0.3,0-0.4-0.1c-0.1,0-0.1-0.1-0.2-0.1c0-0.1,0-0.1,0-0.2l1.1-5.5
			c0-0.2,0.1-0.3,0.1-0.5c0-0.2,0-0.3,0-0.5c0-0.3-0.1-0.6-0.2-0.8c-0.1-0.2-0.4-0.3-0.7-0.3c-0.3,0-0.6,0.1-0.9,0.3
			c-0.3,0.2-0.6,0.4-0.9,0.7s-0.5,0.7-0.7,1.1c-0.2,0.4-0.4,0.8-0.5,1.3l-0.8,4.2c0,0.1,0,0.1-0.1,0.2c0,0.1-0.1,0.1-0.2,0.1
			c-0.1,0-0.2,0.1-0.4,0.1c-0.2,0-0.4,0-0.6,0c-0.3,0-0.5,0-0.6,0c-0.2,0-0.3,0-0.4-0.1c-0.1,0-0.2-0.1-0.2-0.1c0-0.1,0-0.1,0-0.2
			l1.8-9.2c0-0.1,0-0.1,0.1-0.2c0-0.1,0.1-0.1,0.2-0.1c0.1,0,0.2-0.1,0.4-0.1c0.1,0,0.3,0,0.5,0c0.2,0,0.4,0,0.5,0
			c0.1,0,0.2,0,0.3,0.1c0.1,0,0.1,0.1,0.1,0.1c0,0.1,0,0.1,0,0.2l-0.3,1.5c0.1-0.2,0.3-0.5,0.6-0.7c0.2-0.2,0.5-0.5,0.8-0.7
			c0.3-0.2,0.7-0.4,1-0.5c0.4-0.1,0.7-0.2,1.1-0.2c0.5,0,0.9,0.1,1.2,0.2c0.3,0.1,0.6,0.3,0.8,0.6c0.2,0.2,0.4,0.5,0.4,0.8
			C155.3,211,155.3,211.3,155.3,211.7L155.3,211.7z M164.1,210c0,0.1,0,0.2,0,0.4c0,0.2-0.1,0.3-0.1,0.5c0,0.2-0.1,0.3-0.2,0.4
			c-0.1,0.1-0.1,0.2-0.2,0.2c-0.1,0-0.2,0-0.3-0.1c-0.1-0.1-0.3-0.1-0.4-0.2c-0.2-0.1-0.4-0.1-0.6-0.2c-0.2-0.1-0.5-0.1-0.8-0.1
			c-0.2,0-0.5,0-0.6,0.1c-0.2,0.1-0.3,0.1-0.5,0.3c-0.1,0.1-0.2,0.2-0.3,0.4c-0.1,0.1-0.1,0.3-0.1,0.5c0,0.2,0.1,0.4,0.3,0.5
			c0.2,0.1,0.4,0.3,0.7,0.4c0.3,0.1,0.5,0.3,0.8,0.4c0.3,0.1,0.6,0.3,0.8,0.5c0.3,0.2,0.5,0.5,0.6,0.8c0.2,0.3,0.3,0.7,0.3,1.1
			c0,0.5-0.1,1-0.3,1.4c-0.2,0.4-0.5,0.8-0.9,1.1c-0.4,0.3-0.8,0.6-1.4,0.8c-0.5,0.2-1.2,0.3-1.8,0.3c-0.3,0-0.6,0-0.9-0.1
			c-0.3,0-0.6-0.1-0.8-0.2c-0.2-0.1-0.4-0.1-0.6-0.2c-0.2-0.1-0.3-0.2-0.4-0.2c-0.1-0.1-0.1-0.1-0.1-0.2c0-0.1,0-0.1,0-0.2
			c0-0.1,0-0.1,0-0.2c0-0.1,0-0.2,0.1-0.3c0-0.1,0.1-0.2,0.1-0.4c0-0.1,0.1-0.2,0.1-0.3c0-0.1,0.1-0.2,0.1-0.2
			c0-0.1,0.1-0.1,0.2-0.1c0.1,0,0.2,0,0.3,0.1c0.1,0.1,0.3,0.2,0.5,0.3c0.2,0.1,0.4,0.2,0.7,0.3c0.3,0.1,0.6,0.1,1,0.1
			c0.3,0,0.5,0,0.7-0.1c0.2-0.1,0.4-0.2,0.5-0.3c0.1-0.1,0.2-0.3,0.3-0.4c0.1-0.2,0.1-0.3,0.1-0.5c0-0.2-0.1-0.4-0.3-0.6
			c-0.2-0.2-0.4-0.3-0.6-0.4c-0.3-0.1-0.5-0.3-0.8-0.4c-0.3-0.1-0.6-0.3-0.8-0.5c-0.3-0.2-0.5-0.4-0.6-0.7c-0.2-0.3-0.3-0.7-0.3-1.1
			c0-0.5,0.1-0.9,0.3-1.4c0.2-0.4,0.5-0.8,0.8-1.1c0.4-0.3,0.8-0.6,1.3-0.7c0.5-0.2,1.1-0.3,1.7-0.3c0.3,0,0.6,0,0.8,0.1
			c0.3,0,0.5,0.1,0.7,0.1c0.2,0.1,0.4,0.1,0.6,0.2c0.2,0.1,0.3,0.2,0.3,0.2C164.1,209.7,164.1,209.9,164.1,210L164.1,210z
			 M170.1,206.5c0,0.3-0.1,0.5-0.2,0.6c-0.1,0.2-0.2,0.3-0.3,0.4c-0.1,0.1-0.3,0.2-0.5,0.2c-0.2,0-0.4,0.1-0.7,0.1
			c-0.3,0-0.5,0-0.7-0.1c-0.2,0-0.3-0.1-0.4-0.2c-0.1-0.1-0.1-0.2-0.2-0.4c0-0.2,0-0.4,0.1-0.6c0-0.2,0.1-0.5,0.2-0.6
			c0.1-0.2,0.2-0.3,0.3-0.4c0.1-0.1,0.3-0.2,0.5-0.2c0.2,0,0.4-0.1,0.7-0.1c0.3,0,0.5,0,0.7,0.1c0.2,0,0.3,0.1,0.4,0.2
			c0.1,0.1,0.1,0.3,0.2,0.4C170.2,206.1,170.2,206.3,170.1,206.5z M167.5,218.8c0,0.1,0,0.1-0.1,0.2c0,0.1-0.1,0.1-0.2,0.1
			c-0.1,0-0.2,0.1-0.4,0.1c-0.2,0-0.4,0-0.6,0c-0.3,0-0.5,0-0.6,0c-0.2,0-0.3,0-0.4-0.1c-0.1,0-0.2-0.1-0.2-0.1c0-0.1,0-0.1,0-0.2
			l1.8-9.2c0-0.1,0-0.1,0.1-0.2c0-0.1,0.1-0.1,0.2-0.1c0.1,0,0.2-0.1,0.4-0.1c0.2,0,0.4,0,0.6,0c0.3,0,0.5,0,0.6,0
			c0.2,0,0.3,0,0.4,0.1c0.1,0,0.2,0.1,0.2,0.1c0,0.1,0,0.1,0,0.2L167.5,218.8L167.5,218.8z M178.2,205.4c0,0,0,0.1,0,0.2
			c0,0.1,0,0.2,0,0.3c0,0.1,0,0.2-0.1,0.4c0,0.1-0.1,0.2-0.1,0.3c0,0.1-0.1,0.2-0.1,0.3c0,0.1-0.1,0.1-0.2,0.1c0,0-0.1,0-0.2,0
			c-0.1,0-0.1,0-0.2-0.1c-0.1,0-0.2,0-0.3-0.1c-0.1,0-0.2,0-0.3,0c-0.2,0-0.4,0-0.6,0.1c-0.2,0.1-0.3,0.2-0.4,0.3
			c-0.1,0.1-0.2,0.3-0.3,0.5c-0.1,0.2-0.1,0.5-0.2,0.8l-0.2,0.8h1.7c0.1,0,0.2,0,0.2,0.1c0,0.1,0.1,0.2,0.1,0.3c0,0.1,0,0.2,0,0.3
			c0,0.1,0,0.2-0.1,0.4c0,0.1-0.1,0.3-0.1,0.4c0,0.1-0.1,0.2-0.1,0.3c0,0.1-0.1,0.2-0.2,0.3c-0.1,0.1-0.1,0.1-0.2,0.1h-1.7l-1.6,8.1
			c-0.1,0.6-0.3,1.1-0.5,1.5c-0.2,0.4-0.5,0.8-0.8,1.1s-0.7,0.5-1.1,0.7c-0.4,0.1-0.9,0.2-1.4,0.2c-0.4,0-0.7,0-0.9-0.1
			c-0.2-0.1-0.4-0.1-0.5-0.2c0,0-0.1-0.1-0.1-0.1c0,0,0-0.1,0-0.2c0,0,0-0.1,0-0.2c0-0.1,0-0.2,0-0.3c0-0.1,0-0.2,0.1-0.4
			c0-0.1,0.1-0.2,0.1-0.3c0-0.1,0.1-0.2,0.1-0.3c0-0.1,0.1-0.1,0.2-0.1c0,0,0.1,0,0.1,0c0,0,0.1,0,0.1,0c0,0,0.1,0,0.2,0
			c0.1,0,0.2,0,0.3,0c0.2,0,0.4,0,0.6-0.1c0.2-0.1,0.3-0.2,0.4-0.3c0.1-0.1,0.2-0.3,0.3-0.5c0.1-0.2,0.2-0.5,0.2-0.8l1.6-7.7h-1.2
			c-0.1,0-0.1,0-0.2-0.1c0-0.1-0.1-0.2-0.1-0.3c0-0.1,0-0.2,0-0.3c0-0.1,0-0.2,0.1-0.4c0-0.1,0.1-0.2,0.1-0.4c0-0.1,0.1-0.2,0.1-0.3
			c0.1-0.1,0.1-0.2,0.2-0.3c0.1-0.1,0.1-0.1,0.2-0.1h1.1l0.2-1c0.1-0.6,0.3-1.1,0.5-1.5c0.2-0.4,0.5-0.8,0.8-1.1
			c0.3-0.3,0.7-0.5,1.1-0.7c0.4-0.1,0.9-0.2,1.4-0.2c0.2,0,0.4,0,0.5,0c0.2,0,0.3,0,0.5,0.1c0.1,0,0.3,0.1,0.4,0.1
			c0.1,0,0.2,0.1,0.2,0.1c0,0,0.1,0.1,0.1,0.1C178.2,205.3,178.2,205.4,178.2,205.4L178.2,205.4z M191.9,206.2c0,0,0,0.1,0,0.2
			c0,0.1,0,0.2,0,0.3c0,0.1,0,0.3-0.1,0.4c0,0.1-0.1,0.3-0.1,0.4c0,0.1-0.1,0.2-0.2,0.3c-0.1,0.1-0.2,0.1-0.2,0.1h-4.8l-0.7,3.2h4
			c0.1,0,0.2,0,0.2,0.1c0,0.1,0.1,0.2,0.1,0.3c0,0,0,0.1,0,0.2c0,0.1,0,0.2,0,0.3c0,0.1,0,0.3-0.1,0.4c0,0.1-0.1,0.3-0.1,0.4
			c0,0.1-0.1,0.2-0.2,0.3c-0.1,0.1-0.1,0.1-0.2,0.1h-4l-0.8,3.8h4.8c0.1,0,0.1,0,0.2,0.1c0,0.1,0.1,0.2,0.1,0.3c0,0,0,0.1,0,0.2
			c0,0.1,0,0.2,0,0.3c0,0.1-0.1,0.3-0.1,0.4c0,0.1-0.1,0.3-0.1,0.4c-0.1,0.1-0.1,0.2-0.2,0.3c-0.1,0.1-0.1,0.1-0.2,0.1h-6.7
			c-0.1,0-0.2,0-0.3,0c-0.1,0-0.2-0.1-0.2-0.2c-0.1-0.1-0.1-0.2-0.1-0.3c0-0.1,0-0.2,0-0.4l2.3-11.6c0.1-0.3,0.2-0.5,0.4-0.7
			c0.2-0.1,0.4-0.2,0.6-0.2h6.6C191.9,205.8,191.9,206,191.9,206.2L191.9,206.2z M201.6,211.7c0,0.2,0,0.5,0,0.7
			c0,0.2-0.1,0.5-0.1,0.7l-1.1,5.7c0,0.1,0,0.1-0.1,0.2s-0.1,0.1-0.2,0.1c-0.1,0-0.2,0.1-0.4,0.1c-0.2,0-0.4,0-0.6,0
			c-0.2,0-0.5,0-0.6,0c-0.2,0-0.3,0-0.4-0.1c-0.1,0-0.1-0.1-0.2-0.1c0-0.1,0-0.1,0-0.2l1.1-5.5c0-0.2,0.1-0.3,0.1-0.5
			c0-0.2,0-0.3,0-0.5c0-0.3-0.1-0.6-0.2-0.8c-0.1-0.2-0.4-0.3-0.7-0.3c-0.3,0-0.6,0.1-0.9,0.3c-0.3,0.2-0.6,0.4-0.9,0.7
			s-0.5,0.7-0.7,1.1c-0.2,0.4-0.4,0.8-0.5,1.3l-0.8,4.2c0,0.1,0,0.1-0.1,0.2c0,0.1-0.1,0.1-0.2,0.1c-0.1,0-0.2,0.1-0.4,0.1
			c-0.2,0-0.4,0-0.6,0c-0.3,0-0.5,0-0.6,0c-0.2,0-0.3,0-0.4-0.1c-0.1,0-0.2-0.1-0.2-0.1c0-0.1,0-0.1,0-0.2l1.8-9.2
			c0-0.1,0-0.1,0.1-0.2c0-0.1,0.1-0.1,0.2-0.1c0.1,0,0.2-0.1,0.4-0.1c0.1,0,0.3,0,0.5,0c0.2,0,0.4,0,0.5,0c0.1,0,0.2,0,0.3,0.1
			c0.1,0,0.1,0.1,0.1,0.1c0,0.1,0,0.1,0,0.2l-0.3,1.5c0.1-0.2,0.3-0.5,0.6-0.7c0.2-0.2,0.5-0.5,0.8-0.7c0.3-0.2,0.7-0.4,1-0.5
			c0.4-0.1,0.7-0.2,1.1-0.2c0.5,0,0.9,0.1,1.2,0.2c0.3,0.1,0.6,0.3,0.8,0.6c0.2,0.2,0.4,0.5,0.4,0.8
			C201.5,211,201.6,211.3,201.6,211.7L201.6,211.7z M212.4,211.7c0,0.5-0.1,0.9-0.3,1.3c-0.2,0.4-0.6,0.7-1,1
			c-0.5,0.3-1.1,0.5-1.8,0.7c-0.7,0.2-1.6,0.2-2.6,0.2h-0.9c0,0.2,0,0.3-0.1,0.5c0,0.2,0,0.3,0,0.4c0,0.6,0.1,1,0.4,1.3
			c0.3,0.3,0.7,0.4,1.4,0.4c0.5,0,0.9,0,1.2-0.1c0.4-0.1,0.7-0.1,0.9-0.2c0.3-0.1,0.5-0.2,0.7-0.2c0.2-0.1,0.3-0.1,0.4-0.1
			c0.1,0,0.1,0,0.2,0.1c0,0,0.1,0.1,0.1,0.2c0,0.1,0,0.2,0,0.4s0,0.3-0.1,0.4c0,0.1-0.1,0.3-0.1,0.4c-0.1,0.1-0.1,0.2-0.2,0.3
			c-0.1,0.1-0.2,0.2-0.5,0.2c-0.2,0.1-0.5,0.2-0.8,0.2c-0.3,0.1-0.7,0.1-1,0.2c-0.4,0-0.8,0.1-1.2,0.1c-0.7,0-1.2-0.1-1.7-0.2
			c-0.5-0.1-0.9-0.3-1.2-0.6c-0.3-0.3-0.6-0.6-0.7-1.1c-0.2-0.4-0.2-1-0.2-1.6c0-0.5,0-1,0.1-1.5c0.1-0.5,0.2-1,0.4-1.6
			c0.2-0.5,0.4-1,0.7-1.5c0.3-0.5,0.7-0.9,1.1-1.2c0.4-0.4,0.9-0.6,1.5-0.8c0.6-0.2,1.2-0.3,1.9-0.3c0.6,0,1.2,0.1,1.6,0.2
			c0.4,0.1,0.8,0.3,1.1,0.6c0.3,0.2,0.5,0.5,0.6,0.8C212.3,211,212.4,211.3,212.4,211.7L212.4,211.7z M209.8,211.8
			c0-0.3-0.1-0.5-0.3-0.7c-0.2-0.2-0.5-0.3-0.9-0.3c-0.3,0-0.7,0.1-0.9,0.2c-0.3,0.1-0.5,0.3-0.7,0.5s-0.4,0.5-0.5,0.7
			c-0.1,0.3-0.3,0.6-0.4,0.9h0.9c0.5,0,1,0,1.4-0.1c0.4-0.1,0.7-0.2,0.9-0.3c0.2-0.1,0.4-0.3,0.5-0.4
			C209.8,212.2,209.8,212,209.8,211.8L209.8,211.8z M220.8,209.5c0,0,0,0.1,0,0.3c0,0.1,0,0.3-0.1,0.4c0,0.2-0.1,0.3-0.1,0.5
			c0,0.2-0.1,0.3-0.1,0.5c-0.1,0.2-0.1,0.3-0.2,0.4c-0.1,0.1-0.1,0.1-0.2,0.1c-0.1,0-0.1,0-0.2,0c-0.1,0-0.1,0-0.2-0.1
			c-0.1,0-0.2,0-0.2-0.1c-0.1,0-0.2,0-0.3,0c-0.2,0-0.5,0.1-0.7,0.3c-0.3,0.2-0.5,0.4-0.8,0.7c-0.2,0.3-0.5,0.6-0.6,1
			c-0.2,0.4-0.3,0.8-0.4,1.2l-0.8,4.1c0,0.1,0,0.1-0.1,0.2c0,0.1-0.1,0.1-0.2,0.1c-0.1,0-0.2,0.1-0.4,0.1c-0.2,0-0.4,0-0.6,0
			c-0.3,0-0.5,0-0.6,0c-0.2,0-0.3,0-0.4-0.1c-0.1,0-0.2-0.1-0.2-0.1c0-0.1,0-0.1,0-0.2l1.8-9.2c0-0.1,0-0.1,0.1-0.2
			c0-0.1,0.1-0.1,0.2-0.1c0.1,0,0.2-0.1,0.4-0.1c0.1,0,0.3,0,0.5,0c0.2,0,0.4,0,0.5,0c0.1,0,0.2,0,0.3,0.1c0.1,0,0.1,0.1,0.2,0.1
			c0,0.1,0,0.1,0,0.2l-0.3,1.5c0.2-0.3,0.4-0.6,0.6-0.8c0.2-0.2,0.4-0.5,0.7-0.6s0.5-0.3,0.8-0.4c0.3-0.1,0.5-0.2,0.8-0.2
			c0.1,0,0.2,0,0.3,0c0.1,0,0.2,0,0.3,0c0.1,0,0.2,0,0.2,0.1c0.1,0,0.1,0.1,0.2,0.1C220.8,209.3,220.8,209.4,220.8,209.5
			L220.8,209.5z M229,219.2c-0.1,0.6-0.3,1.2-0.6,1.6c-0.3,0.5-0.6,0.8-1,1.2s-0.9,0.5-1.5,0.7c-0.6,0.2-1.3,0.2-2.1,0.2
			c-0.6,0-1.1,0-1.6-0.1c-0.5-0.1-0.9-0.2-1.2-0.4c-0.1-0.1-0.2-0.1-0.2-0.2c0-0.1-0.1-0.2-0.1-0.3c0,0,0-0.1,0-0.2
			c0-0.1,0-0.2,0-0.3c0-0.1,0.1-0.2,0.1-0.4c0-0.1,0.1-0.2,0.1-0.3c0.1-0.1,0.1-0.2,0.2-0.2c0.1-0.1,0.1-0.1,0.2-0.1
			c0.1,0,0.2,0,0.3,0.1c0.1,0.1,0.3,0.1,0.5,0.2c0.2,0.1,0.4,0.1,0.7,0.2c0.3,0.1,0.7,0.1,1.1,0.1c0.3,0,0.7,0,0.9-0.1
			c0.3-0.1,0.5-0.1,0.7-0.3c0.2-0.1,0.4-0.3,0.5-0.5c0.1-0.2,0.2-0.4,0.3-0.7c0.1-0.4,0.2-0.8,0.3-1.1c0.1-0.3,0.2-0.5,0.3-0.7
			c-0.1,0.2-0.3,0.4-0.5,0.7c-0.2,0.2-0.5,0.4-0.8,0.6c-0.3,0.2-0.6,0.3-1,0.4c-0.3,0.1-0.7,0.2-1,0.2c-0.5,0-1-0.1-1.3-0.3
			c-0.4-0.2-0.7-0.4-0.9-0.7c-0.2-0.3-0.4-0.7-0.5-1.1c-0.1-0.4-0.2-0.9-0.2-1.4c0-0.4,0-0.9,0.1-1.4c0.1-0.5,0.2-1,0.4-1.5
			c0.2-0.5,0.4-1,0.7-1.5c0.3-0.5,0.6-0.9,1-1.2c0.4-0.4,0.8-0.6,1.3-0.9c0.5-0.2,1-0.3,1.6-0.3c0.6,0,1.1,0.1,1.5,0.4
			c0.4,0.2,0.8,0.6,1.1,1l0.2-0.8c0-0.1,0.1-0.2,0.3-0.3c0.2-0.1,0.5-0.1,0.9-0.1c0.2,0,0.4,0,0.5,0c0.1,0,0.2,0,0.3,0.1
			c0.1,0,0.1,0.1,0.2,0.1c0,0.1,0,0.1,0,0.2L229,219.2L229,219.2z M227.8,212.4c-0.2-0.4-0.5-0.7-0.8-0.8c-0.3-0.2-0.6-0.3-1-0.3
			c-0.3,0-0.6,0.1-0.8,0.2c-0.2,0.1-0.5,0.3-0.6,0.5c-0.2,0.2-0.4,0.5-0.5,0.8c-0.1,0.3-0.3,0.6-0.4,0.9c-0.1,0.3-0.2,0.7-0.2,1
			c0,0.3-0.1,0.6-0.1,0.9c0,0.2,0,0.4,0.1,0.6c0,0.2,0.1,0.4,0.2,0.5c0.1,0.1,0.2,0.2,0.3,0.3c0.1,0.1,0.3,0.1,0.5,0.1
			c0.3,0,0.6-0.1,0.9-0.3c0.3-0.2,0.6-0.4,0.9-0.7c0.3-0.3,0.5-0.7,0.7-1.1c0.2-0.4,0.4-0.9,0.5-1.3L227.8,212.4L227.8,212.4z
			 M237,206.5c0,0.3-0.1,0.5-0.2,0.6c-0.1,0.2-0.2,0.3-0.3,0.4c-0.1,0.1-0.3,0.2-0.5,0.2c-0.2,0-0.4,0.1-0.7,0.1
			c-0.3,0-0.5,0-0.7-0.1c-0.2,0-0.3-0.1-0.4-0.2c-0.1-0.1-0.1-0.2-0.2-0.4c0-0.2,0-0.4,0.1-0.6c0-0.2,0.1-0.5,0.2-0.6
			c0.1-0.2,0.2-0.3,0.3-0.4c0.1-0.1,0.3-0.2,0.5-0.2c0.2,0,0.4-0.1,0.7-0.1c0.3,0,0.5,0,0.7,0.1c0.2,0,0.3,0.1,0.4,0.2
			c0.1,0.1,0.1,0.3,0.2,0.4C237,206.1,237,206.3,237,206.5L237,206.5z M234.3,218.8c0,0.1,0,0.1-0.1,0.2c0,0.1-0.1,0.1-0.2,0.1
			c-0.1,0-0.2,0.1-0.4,0.1c-0.2,0-0.4,0-0.6,0c-0.3,0-0.5,0-0.6,0c-0.2,0-0.3,0-0.4-0.1c-0.1,0-0.2-0.1-0.2-0.1c0-0.1,0-0.1,0-0.2
			l1.8-9.2c0-0.1,0-0.1,0.1-0.2c0-0.1,0.1-0.1,0.2-0.1c0.1,0,0.2-0.1,0.4-0.1c0.2,0,0.4,0,0.6,0c0.3,0,0.5,0,0.6,0
			c0.2,0,0.3,0,0.4,0.1c0.1,0,0.2,0.1,0.2,0.1c0,0.1,0,0.1,0,0.2L234.3,218.8L234.3,218.8z"/>
		<path class="st1" d="M246.9,209.6c0,0.1,0,0.2-0.1,0.4c-0.1,0.2-0.2,0.3-0.5,0.6l-3.2,3.1l2.1,4.4c0.1,0.2,0.1,0.3,0.1,0.4
			c0,0.1,0,0.2,0,0.3c0,0.1,0,0.2-0.1,0.2c0,0.1-0.1,0.1-0.2,0.2c-0.1,0-0.3,0.1-0.4,0.1c-0.2,0-0.4,0-0.7,0c-0.3,0-0.5,0-0.7,0
			c-0.2,0-0.3,0-0.4-0.1c-0.1,0-0.2-0.1-0.2-0.1c0-0.1-0.1-0.1-0.1-0.2l-2.2-4.8l-1,4.9c0,0.1-0.1,0.1-0.1,0.2
			c0,0.1-0.1,0.1-0.2,0.1c-0.1,0-0.2,0.1-0.4,0.1c-0.2,0-0.4,0-0.6,0c-0.3,0-0.5,0-0.6,0c-0.2,0-0.3,0-0.4-0.1
			c-0.1,0-0.2-0.1-0.2-0.1c0-0.1,0-0.1,0-0.2l2.7-13.6c0-0.1,0-0.1,0.1-0.2c0-0.1,0.1-0.1,0.2-0.1c0.1,0,0.3-0.1,0.4-0.1
			c0.2,0,0.4,0,0.6,0c0.3,0,0.5,0,0.6,0c0.2,0,0.3,0,0.4,0.1c0.1,0,0.1,0.1,0.2,0.1c0,0.1,0,0.1,0,0.2l-1.6,8.1l3.4-3.7
			c0.1-0.1,0.1-0.2,0.2-0.2c0.1-0.1,0.2-0.1,0.3-0.1c0.1,0,0.3-0.1,0.4-0.1s0.4,0,0.7,0c0.3,0,0.5,0,0.6,0c0.2,0,0.3,0,0.4,0.1
			c0.1,0,0.2,0.1,0.2,0.1C246.9,209.5,246.9,209.5,246.9,209.6L246.9,209.6z M257,206.5c0,0.3-0.1,0.5-0.2,0.6
			c-0.1,0.2-0.2,0.3-0.3,0.4c-0.1,0.1-0.3,0.2-0.5,0.2c-0.2,0-0.4,0.1-0.7,0.1c-0.3,0-0.5,0-0.7-0.1c-0.2,0-0.3-0.1-0.4-0.2
			c-0.1-0.1-0.1-0.2-0.2-0.4c0-0.2,0-0.4,0.1-0.6c0-0.2,0.1-0.5,0.2-0.6c0.1-0.2,0.2-0.3,0.3-0.4c0.1-0.1,0.3-0.2,0.5-0.2
			c0.2,0,0.4-0.1,0.7-0.1c0.3,0,0.5,0,0.7,0.1c0.2,0,0.3,0.1,0.4,0.2c0.1,0.1,0.1,0.3,0.2,0.4C257.1,206.1,257.1,206.3,257,206.5
			L257,206.5z M254.4,218.8c0,0.1,0,0.1-0.1,0.2c0,0.1-0.1,0.1-0.2,0.1c-0.1,0-0.2,0.1-0.4,0.1c-0.2,0-0.4,0-0.6,0
			c-0.3,0-0.5,0-0.6,0c-0.2,0-0.3,0-0.4-0.1c-0.1,0-0.2-0.1-0.2-0.1c0-0.1,0-0.1,0-0.2l1.8-9.2c0-0.1,0-0.1,0.1-0.2
			c0-0.1,0.1-0.1,0.2-0.1c0.1,0,0.2-0.1,0.4-0.1c0.2,0,0.4,0,0.6,0c0.3,0,0.5,0,0.6,0c0.2,0,0.3,0,0.4,0.1c0.1,0,0.2,0.1,0.2,0.1
			c0,0.1,0,0.1,0,0.2L254.4,218.8L254.4,218.8z M268.2,218.2c0,0.2-0.1,0.3-0.2,0.4c-0.1,0.1-0.2,0.2-0.3,0.3
			c-0.1,0.1-0.2,0.1-0.4,0.2c-0.1,0-0.3,0.1-0.4,0.1h-1.2c-0.2,0-0.4,0-0.6-0.1c-0.2,0-0.3-0.1-0.4-0.3c-0.1-0.1-0.2-0.3-0.3-0.5
			c-0.1-0.2-0.2-0.5-0.3-0.8l-2-6c-0.2-0.5-0.3-0.9-0.4-1.4c-0.1-0.5-0.3-0.9-0.4-1.4h0c-0.1,0.5-0.1,1.1-0.2,1.6
			c-0.1,0.5-0.2,1.1-0.3,1.6l-1.4,6.8c0,0.1,0,0.1-0.1,0.2c0,0.1-0.1,0.1-0.2,0.1c-0.1,0-0.2,0.1-0.4,0.1c-0.2,0-0.4,0-0.6,0
			c-0.2,0-0.4,0-0.6,0c-0.2,0-0.3,0-0.4-0.1c-0.1,0-0.1-0.1-0.2-0.1c0-0.1,0-0.1,0-0.2l2.4-12c0.1-0.3,0.2-0.6,0.4-0.7
			c0.2-0.2,0.5-0.2,0.7-0.2h1.4c0.2,0,0.4,0,0.6,0.1c0.2,0.1,0.3,0.1,0.4,0.2c0.1,0.1,0.2,0.3,0.3,0.4c0.1,0.2,0.2,0.4,0.2,0.7l2,6
			c0.1,0.4,0.2,0.8,0.4,1.1c0.1,0.4,0.2,0.8,0.3,1.1h0c0.1-0.5,0.2-1,0.3-1.5c0.1-0.5,0.2-1,0.3-1.5l1.3-6.3c0-0.1,0-0.1,0.1-0.2
			c0-0.1,0.1-0.1,0.2-0.1c0.1,0,0.2-0.1,0.4-0.1c0.2,0,0.4,0,0.6,0c0.2,0,0.4,0,0.6,0c0.2,0,0.3,0,0.4,0.1c0.1,0,0.1,0.1,0.2,0.1
			c0,0.1,0,0.1,0,0.2L268.2,218.2L268.2,218.2z M280.9,212.7c0,0.5,0,1-0.1,1.5c-0.1,0.5-0.2,1-0.4,1.5c-0.2,0.5-0.5,1-0.8,1.4
			c-0.3,0.4-0.7,0.8-1.1,1.2c-0.4,0.3-0.9,0.6-1.5,0.8c-0.6,0.2-1.2,0.3-1.9,0.3c-0.7,0-1.3-0.1-1.8-0.2c-0.5-0.2-0.9-0.4-1.3-0.7
			c-0.3-0.3-0.6-0.7-0.8-1.2c-0.2-0.5-0.2-1-0.2-1.6c0-0.5,0-1,0.1-1.5c0.1-0.5,0.2-1,0.4-1.5c0.2-0.5,0.5-1,0.8-1.4
			c0.3-0.4,0.7-0.8,1.1-1.2c0.4-0.3,0.9-0.6,1.5-0.8c0.6-0.2,1.2-0.3,1.9-0.3c0.7,0,1.3,0.1,1.8,0.2c0.5,0.2,0.9,0.4,1.3,0.7
			c0.3,0.3,0.6,0.7,0.8,1.2C280.9,211.6,280.9,212.1,280.9,212.7L280.9,212.7z M278.3,212.9c0-0.3,0-0.5-0.1-0.8
			c-0.1-0.2-0.2-0.4-0.3-0.6c-0.1-0.2-0.3-0.3-0.5-0.4c-0.2-0.1-0.5-0.1-0.8-0.1c-0.3,0-0.7,0.1-0.9,0.2c-0.3,0.1-0.5,0.3-0.7,0.5
			c-0.2,0.2-0.4,0.5-0.6,0.8c-0.2,0.3-0.3,0.6-0.4,0.9c-0.1,0.3-0.2,0.7-0.2,1c0,0.3-0.1,0.7-0.1,1c0,0.3,0,0.5,0.1,0.8
			c0.1,0.2,0.2,0.4,0.3,0.6c0.1,0.2,0.3,0.3,0.5,0.4c0.2,0.1,0.5,0.1,0.8,0.1c0.3,0,0.7-0.1,0.9-0.2c0.3-0.1,0.5-0.3,0.7-0.5
			c0.2-0.2,0.4-0.5,0.6-0.8c0.2-0.3,0.3-0.6,0.4-0.9c0.1-0.3,0.2-0.7,0.2-1C278.2,213.5,278.3,213.2,278.3,212.9L278.3,212.9z
			 M291.7,209.6c0,0.1,0,0.2,0,0.3c0,0.1,0,0.2-0.1,0.4c-0.3,0.7-0.5,1.5-0.8,2.2c-0.3,0.7-0.6,1.5-1,2.2c-0.4,0.7-0.8,1.4-1.2,2.1
			c-0.4,0.7-0.9,1.4-1.4,2c-0.1,0.1-0.2,0.2-0.2,0.2c-0.1,0.1-0.2,0.1-0.4,0.1c-0.1,0-0.3,0-0.5,0.1c-0.2,0-0.4,0-0.7,0
			c-0.4,0-0.7,0-0.9,0c-0.2,0-0.4,0-0.5-0.1c-0.1,0-0.2-0.1-0.2-0.2c0-0.1-0.1-0.2-0.1-0.3l-1.1-8.3c0-0.1,0-0.2,0-0.3
			c0-0.1,0-0.2,0-0.3c0-0.1,0-0.2,0-0.3c0-0.1,0.1-0.1,0.2-0.2c0.1,0,0.2-0.1,0.4-0.1c0.2,0,0.4,0,0.7,0c0.3,0,0.5,0,0.7,0
			c0.2,0,0.3,0,0.4,0.1c0.1,0,0.1,0.1,0.2,0.1c0,0.1,0,0.1,0.1,0.2l0.8,6.8l0,0.3l0.1-0.1c0.4-0.5,0.7-1.1,1-1.6
			c0.3-0.5,0.6-1.1,0.8-1.6c0.2-0.6,0.5-1.1,0.7-1.8c0.2-0.6,0.4-1.2,0.6-1.9c0-0.1,0.1-0.2,0.1-0.2c0.1-0.1,0.1-0.1,0.3-0.1
			c0.1,0,0.3-0.1,0.4-0.1c0.2,0,0.4,0,0.7,0c0.3,0,0.5,0,0.6,0c0.2,0,0.3,0,0.4,0.1c0.1,0,0.1,0.1,0.2,0.1
			C291.7,209.4,291.7,209.5,291.7,209.6L291.7,209.6z M300.3,218.8c0,0.1-0.1,0.2-0.3,0.3c-0.2,0.1-0.5,0.1-0.9,0.1
			c-0.2,0-0.4,0-0.5,0c-0.1,0-0.2,0-0.3-0.1c-0.1,0-0.1-0.1-0.2-0.1c0-0.1,0-0.1,0-0.2l0.3-1.5c-0.1,0.2-0.3,0.5-0.5,0.7
			c-0.2,0.2-0.5,0.5-0.8,0.7c-0.3,0.2-0.7,0.4-1,0.5c-0.4,0.1-0.8,0.2-1.2,0.2c-0.5,0-1-0.1-1.4-0.3c-0.4-0.2-0.7-0.4-0.9-0.8
			c-0.2-0.3-0.4-0.7-0.5-1.1c-0.1-0.4-0.1-0.9-0.1-1.3c0-0.4,0-0.9,0.1-1.4c0.1-0.5,0.2-1,0.4-1.5c0.2-0.5,0.4-1,0.7-1.5
			c0.3-0.5,0.6-0.9,1-1.2c0.4-0.4,0.8-0.7,1.3-0.9c0.5-0.2,1-0.3,1.6-0.3c0.6,0,1.1,0.1,1.5,0.4c0.4,0.2,0.8,0.6,1.1,1l0.2-0.8
			c0-0.1,0.1-0.2,0.3-0.3c0.2-0.1,0.5-0.1,0.9-0.1c0.2,0,0.4,0,0.5,0c0.1,0,0.2,0,0.3,0.1c0.1,0,0.1,0.1,0.2,0.1c0,0.1,0,0.1,0,0.2
			L300.3,218.8L300.3,218.8z M299,212.4c-0.2-0.4-0.5-0.7-0.8-0.8s-0.6-0.3-1-0.3c-0.3,0-0.6,0.1-0.8,0.2c-0.2,0.1-0.5,0.3-0.6,0.6
			c-0.2,0.2-0.4,0.5-0.5,0.8c-0.1,0.3-0.3,0.6-0.4,0.9c-0.1,0.3-0.2,0.7-0.2,1c0,0.3-0.1,0.6-0.1,0.9c0,0.2,0,0.4,0,0.6
			c0,0.2,0.1,0.4,0.2,0.5c0.1,0.1,0.2,0.3,0.3,0.3c0.1,0.1,0.3,0.1,0.5,0.1c0.3,0,0.6-0.1,0.9-0.3c0.3-0.2,0.6-0.4,0.9-0.7
			c0.3-0.3,0.5-0.7,0.7-1.1c0.2-0.4,0.4-0.9,0.5-1.3L299,212.4L299,212.4z M312.6,218.8c0,0.1,0,0.1-0.1,0.2
			c-0.1,0.1-0.1,0.1-0.2,0.1c-0.1,0-0.2,0.1-0.4,0.1c-0.2,0-0.4,0-0.6,0c-0.2,0-0.5,0-0.6,0c-0.2,0-0.3,0-0.4-0.1
			c-0.1,0-0.2-0.1-0.2-0.1c0-0.1,0-0.1,0-0.2l1.5-7.4h-4.1l-0.9,4.3c0,0.1,0,0.2-0.1,0.4s0,0.3,0,0.3c0,0.3,0.1,0.5,0.2,0.6
			c0.1,0.1,0.3,0.2,0.6,0.2c0.2,0,0.3,0,0.4,0c0.1,0,0.2-0.1,0.3-0.1c0.1,0,0.2-0.1,0.2-0.1c0.1,0,0.1,0,0.2,0c0.1,0,0.1,0,0.1,0.1
			c0,0,0.1,0.1,0.1,0.2c0,0.1,0,0.3,0,0.4c0,0.2-0.1,0.3-0.1,0.5c0,0.2-0.1,0.3-0.2,0.4c-0.1,0.1-0.1,0.2-0.2,0.3
			c-0.1,0.1-0.2,0.1-0.3,0.2c-0.1,0.1-0.3,0.1-0.4,0.1c-0.2,0-0.3,0.1-0.5,0.1c-0.2,0-0.4,0-0.6,0c-0.4,0-0.8,0-1.1-0.1
			c-0.3-0.1-0.6-0.2-0.8-0.4c-0.2-0.2-0.4-0.4-0.5-0.7c-0.1-0.3-0.2-0.6-0.2-1.1c0-0.1,0-0.2,0-0.3c0-0.1,0-0.2,0-0.3
			c0-0.1,0-0.2,0.1-0.3c0-0.1,0-0.2,0.1-0.3l0.9-4.5h-1.1c-0.1,0-0.2,0-0.2-0.1c0-0.1-0.1-0.2-0.1-0.3c0-0.1,0-0.3,0-0.5
			c0-0.2,0.1-0.4,0.1-0.6c0.1-0.2,0.1-0.3,0.2-0.5c0.1-0.1,0.2-0.2,0.3-0.2h1.1l0.4-2.1c0-0.1,0-0.1,0.1-0.2c0-0.1,0.1-0.1,0.2-0.1
			s0.2-0.1,0.4-0.1c0.2,0,0.4,0,0.6,0c0.2,0,0.4,0,0.6,0c0.2,0,0.3,0,0.4,0.1c0.1,0,0.2,0.1,0.2,0.1c0,0.1,0,0.1,0,0.2l-0.4,2.1h5.9
			c0.3,0,0.5,0.1,0.6,0.2c0.1,0.1,0.1,0.3,0.1,0.5L312.6,218.8L312.6,218.8z M315.3,206.5c0,0.3-0.1,0.5-0.2,0.6
			c-0.1,0.2-0.2,0.3-0.3,0.4c-0.1,0.1-0.3,0.2-0.5,0.2c-0.2,0-0.4,0.1-0.7,0.1c-0.3,0-0.5,0-0.7-0.1c-0.2,0-0.3-0.1-0.4-0.2
			c-0.1-0.1-0.1-0.2-0.2-0.4c0-0.2,0-0.4,0.1-0.6c0.1-0.2,0.1-0.5,0.2-0.6c0.1-0.2,0.2-0.3,0.3-0.4c0.1-0.1,0.3-0.2,0.5-0.2
			c0.2,0,0.4-0.1,0.7-0.1c0.3,0,0.5,0,0.7,0.1c0.2,0,0.3,0.1,0.4,0.2c0.1,0.1,0.1,0.2,0.2,0.4C315.4,206.1,315.3,206.3,315.3,206.5
			L315.3,206.5z M323.4,205.4c0,0,0,0.1,0,0.2c0,0.1,0,0.2,0,0.3c0,0.1,0,0.2-0.1,0.4c0,0.1-0.1,0.2-0.1,0.3c0,0.1-0.1,0.2-0.1,0.3
			c0,0.1-0.1,0.1-0.2,0.1c0,0-0.1,0-0.2,0c-0.1,0-0.1,0-0.2-0.1c-0.1,0-0.2,0-0.3-0.1c-0.1,0-0.2,0-0.3,0c-0.2,0-0.4,0-0.6,0.1
			c-0.2,0.1-0.3,0.2-0.4,0.3c-0.1,0.1-0.2,0.3-0.3,0.5c-0.1,0.2-0.1,0.5-0.2,0.8l-0.2,0.8h1.7c0.1,0,0.2,0,0.2,0.1
			c0,0.1,0.1,0.2,0.1,0.3c0,0.1,0,0.2,0,0.3c0,0.1,0,0.2-0.1,0.4c0,0.1-0.1,0.3-0.1,0.4c0,0.1-0.1,0.2-0.1,0.3
			c0,0.1-0.1,0.2-0.2,0.3c-0.1,0.1-0.1,0.1-0.2,0.1h-1.7l-1.6,8.1c-0.1,0.6-0.3,1.1-0.5,1.5c-0.2,0.4-0.5,0.8-0.8,1.1
			c-0.3,0.3-0.7,0.5-1.1,0.7c-0.4,0.1-0.9,0.2-1.4,0.2c-0.4,0-0.7,0-0.9-0.1c-0.2-0.1-0.4-0.1-0.5-0.2c0,0-0.1-0.1-0.1-0.1
			c0,0,0-0.1,0-0.2c0,0,0-0.1,0-0.2c0-0.1,0-0.2,0-0.3c0-0.1,0-0.2,0.1-0.4c0-0.1,0.1-0.2,0.1-0.3c0-0.1,0.1-0.2,0.1-0.3
			c0-0.1,0.1-0.1,0.2-0.1c0,0,0.1,0,0.1,0c0,0,0.1,0,0.1,0c0,0,0.1,0,0.2,0c0.1,0,0.2,0,0.3,0c0.2,0,0.4,0,0.6-0.1
			c0.2-0.1,0.3-0.2,0.4-0.3c0.1-0.1,0.2-0.3,0.3-0.5c0.1-0.2,0.2-0.5,0.2-0.8l1.6-7.7h-1.2c-0.1,0-0.1,0-0.2-0.1
			c0-0.1-0.1-0.2-0.1-0.3c0-0.1,0-0.2,0-0.3c0-0.1,0-0.2,0.1-0.4c0-0.1,0.1-0.2,0.1-0.4c0-0.1,0.1-0.2,0.1-0.3
			c0.1-0.1,0.1-0.2,0.2-0.3c0.1-0.1,0.1-0.1,0.2-0.1h1.1l0.2-1c0.1-0.6,0.3-1.1,0.5-1.5c0.2-0.4,0.5-0.8,0.8-1.1
			c0.3-0.3,0.7-0.5,1.1-0.7c0.4-0.1,0.9-0.2,1.4-0.2c0.2,0,0.4,0,0.5,0c0.2,0,0.3,0,0.5,0.1c0.1,0,0.3,0.1,0.4,0.1
			c0.1,0,0.2,0.1,0.2,0.1c0,0,0.1,0.1,0.1,0.1C323.4,205.3,323.4,205.4,323.4,205.4L323.4,205.4z"/>
	</g>
	<g>
		<path class="st5" d="M410.5,48.6c-1.2,1-2.6,1.6-4.3,1.9l-0.1,0c-4.8,0.8-9.1-2.3-10.6-6.8l-6.5-20.1c-1.7-5.3,2.1-10.8,7.5-11.7
			l6.3-1c5.4-0.9,10.8,3,10.8,8.7l0,2.6c0,0,0,0,0.1,0l3.5,0.1l0-1.7c0.1-5.6,5.4-9.6,10.8-8.7l6.3,1c5.4,0.9,9.3,6.3,7.5,11.7
			l-0.7,2.2c0.2,0.1,0.4,0.2,0.7,0.2l3.4,1.5c0.4,0.2,0.8,0.4,1.2,0.6l1.6-2.8c2.7-4.9,9.3-5.8,13.7-2.5l5.1,3.9
			c4.3,3.3,5.1,10,1.1,13.8l-0.5,0.5l2,2.1c0.1,0.1,0.1,0.1,0.2,0.2l2.6-2.3c4.2-3.8,10.7-2.5,13.7,2.1l3.5,5.4
			c3,4.6,1.6,11.1-3.5,13.4l-19.1,8.8c-4.3,2-9.5,1-12.2-3.1l0-0.1c-0.8-1.2-1.3-2.5-1.4-3.9c-1.9-0.1-3.8-0.9-5.3-2.4l0,0
			c-0.9-0.9-1.5-2.1-1.9-3.2c-2,0.1-4-0.5-5.7-1.9l-0.1,0c-1.1-0.9-2-2-2.6-3.1c-1.6,0.4-3.3,0.3-5-0.4l0,0
			c-1.3-0.6-2.4-1.4-3.1-2.5c-1.4,0.5-2.9,0.6-4.4,0.4l-0.1,0c-2-0.3-3.7-1.2-5-2.5c-1.3,0.9-2.9,1.5-4.6,1.4h0
			C413.5,50.3,411.9,49.7,410.5,48.6L410.5,48.6z"/>
	</g>
	<g>
		<path class="st0" d="M427.3,18l6.3,1c1.7,0.3,3.2,2,2.6,3.6l-6.5,20.1c-0.5,1.7-1.9,2.9-3.6,2.6l-0.1,0c-1.7-0.3-2.6-1.9-2.6-3.6
			l0.2-21.1C423.7,18.9,425.6,17.7,427.3,18L427.3,18z"/>
		<path class="st0" d="M439.6,32.7l3.4,1.5c0.9,0.4,1.5,1.5,1,2.4l-6.4,10.3c-0.5,0.9-1.5,1.4-2.4,1l0,0c-0.9-0.4-1.2-1.4-1-2.4
			l3-11.8C437.5,32.7,438.7,32.3,439.6,32.7L439.6,32.7z"/>
		<path class="st0" d="M458.1,28.8l5.1,3.9c1.4,1.1,1.8,3.2,0.6,4.4l-15.2,14.6c-1.3,1.2-3.1,1.6-4.4,0.6l-0.1,0
			c-1.4-1.1-1.4-2.9-0.6-4.4l10.2-18.4C454.5,27.8,456.7,27.7,458.1,28.8L458.1,28.8z"/>
		<path class="st0" d="M462.5,45.8l2.6,2.7c0.7,0.7,0.8,2-0.1,2.6l-10,7c-0.8,0.6-1.9,0.7-2.6-0.1l0,0c-0.7-0.7-0.6-1.8,0.1-2.6
			l7.4-9.6C460.5,45,461.8,45.1,462.5,45.8z"/>
		<path class="st0" d="M480.8,47.6l3.5,5.4c1,1.5,0.7,3.7-0.9,4.4l-19.1,8.8c-1.6,0.7-3.4,0.6-4.4-0.9l0-0.1c-1-1.5-0.4-3.2,0.9-4.4
			l15.6-14.1C477.7,45.5,479.9,46.1,480.8,47.6L480.8,47.6z"/>
		<path class="st0" d="M413.9,28.4l3.7,0.1c1,0,2,0.9,1.8,1.9l-2,12c-0.2,1-0.9,1.8-1.9,1.8h0c-1,0-1.7-0.9-1.8-1.9L412,30.2
			C411.9,29.2,412.9,28.4,413.9,28.4L413.9,28.4z"/>
		<path class="st0" d="M404,17.1l-6.3,1c-1.7,0.3-3.2,2-2.6,3.6l6.5,20.1c0.5,1.7,1.9,2.9,3.6,2.6l0.1,0c1.7-0.3,2.6-1.9,2.6-3.6
			l-0.2-21.1C407.6,17.9,405.7,16.8,404,17.1L404,17.1z"/>
	</g>
</g>
</svg>
